<?xml version="1.0" encoding="UTF-8"?>
<svg width="1440px" height="512px" viewBox="0 0 1440 512" version="1.1" xmlns="http://www.w3.org/2000/svg" xmlns:xlink="http://www.w3.org/1999/xlink" style="background: #FFFFFF;">
    <!-- Generator: Sketch 49.1 (51147) - http://www.bohemiancoding.com/sketch -->
    <title>cosmos/logo-horizontal-complex-white</title>
    <desc>Created with Sketch.</desc>
    <defs>
        <path d="M160,0.3072 C248.19584,0.3072 319.6928,71.80416 319.6928,160 C319.6928,248.19584 248.19584,319.6928 160,319.6928 C71.80416,319.6928 0.3072,248.19584 0.3072,160 C0.3072,71.80416 71.80416,0.3072 160,0.3072 Z" id="path-1"></path>
        <path d="M160.475069,20.1822096 C177.645145,20.1822096 191.564307,82.7807889 191.564307,160 C191.564307,237.219211 177.645145,299.81779 160.475069,299.81779 C143.304931,299.81779 129.385832,237.219211 129.385832,160 C129.385832,82.7807889 143.304931,20.1822096 160.475069,20.1822096 Z" id="path-2"></path>
        <path d="M281.633992,90.0918787 C290.219073,104.952666 242.933161,148.298537 176.01792,186.907602 C109.102679,225.516818 47.8974575,244.768759 39.3121167,229.908121 C30.7270363,215.047484 78.0129486,171.701463 144.928189,133.092398 C211.84343,94.4831816 273.048652,75.2312415 281.633992,90.0918787 Z" id="path-3"></path>
        <path d="M281.633992,229.908121 C273.048652,244.768759 211.84343,225.516818 144.928189,186.907602 C78.0129486,148.298537 30.7270363,104.952666 39.3121167,90.0918787 C47.8974575,75.2312415 109.102679,94.4831816 176.01792,133.092398 C242.933161,171.701463 290.219073,215.047484 281.633992,229.908121 Z" id="path-4"></path>
    </defs>
    <g id="cosmos/logo-horizontal-complex-white" stroke="none" stroke-width="1" fill="none" fill-rule="evenodd">
        <g id="cosmos-logo/black-text" transform="translate(544.000000, 128.000000)">
            <g id="wordmark/black" transform="translate(0.000000, -9.000000)" fill="#000000" fill-rule="evenodd" stroke-width="1">
                <g id="text" transform="translate(0.000000, 27.750000)">
                    <path d="M85.3333333,100.351779 L74.8006858,89.685497 C70.7998988,93.4177964 66.7559378,96.3748567 62.665205,98.5530807 C58.5780701,100.729506 53.6886191,101.817718 48.0004497,101.817718 C43.5553307,101.817718 39.4448098,100.952544 35.6670883,99.2185991 C31.8893667,97.4846537 28.622537,95.108573 25.8665992,92.0849608 C23.1106614,89.0631473 20.9789471,85.5305034 19.4660595,81.4870291 C17.9549709,77.4435549 17.2012255,73.1086914 17.2012255,68.4896336 C17.2012255,63.8669784 17.9549709,59.5554981 19.4660595,55.5551926 C20.9789471,51.5566858 23.1106614,48.0690094 25.8665992,45.0903646 C28.622537,42.1135186 31.8893667,39.7590222 35.6670883,38.0250769 C39.4448098,36.2929302 43.5553307,35.4259575 48.0004497,35.4259575 C53.3324339,35.4259575 58.0887652,36.4925857 62.2658459,38.6258422 C66.4447255,40.7572999 70.4005397,43.5578735 74.1314894,47.0239655 L84.6659359,34.8935427 C82.4442758,32.7602863 80.089496,30.805101 77.5997976,29.0261882 C75.1118981,27.249074 72.4009332,25.7147842 69.4669028,24.4269161 C66.5328724,23.1372492 63.3110155,22.1389715 59.7995334,21.4284856 C56.2880513,20.716201 52.398797,20.3600587 48.1335694,20.3600587 C41.0224583,20.3600587 34.5337718,21.6281412 28.6675099,24.1607087 C22.7994491,26.6932762 17.7337044,30.1593682 13.4666779,34.5589848 C9.19965146,38.9586014 5.88964781,44.0902883 3.53306912,49.9576428 C1.17649043,55.8231987 0,62.0898643 0,68.755841 C0,75.5099539 1.19987632,81.8197883 3.59962897,87.6871429 C5.99938162,93.5509001 9.31118419,98.6394182 13.5332378,102.950899 C17.7552913,107.26058 22.7544762,110.66012 28.5325913,113.149519 C34.3107064,115.638918 40.6230992,116.881819 47.466172,116.881819 C51.8231442,116.881819 55.8005453,116.504092 59.4001743,115.748638 C62.9998032,114.993185 66.3116058,113.883388 69.3337831,112.417449 C72.3559603,110.949711 75.178458,109.215765 77.8012761,107.217411 C80.4222953,105.217259 82.9335807,102.927515 85.3333333,100.351779" id="Fill-3"></path>
                    <path d="M296.901872,46.7855809 C296.901872,43.6809601 298.227615,41.0429296 300.88089,38.8714896 C303.532376,36.6964604 307.246604,35.6107404 312.019995,35.6107404 C316.263804,35.6107404 320.462885,36.4326573 324.617238,38.0729021 C328.77338,39.7131469 332.972461,42.0855797 337.214481,45.188406 L345.96689,32.8183762 C341.195288,29.0048968 336.08912,26.1012687 330.651963,24.107492 C325.213017,22.1119206 319.092414,21.114135 312.284785,21.114135 C307.688518,21.114135 303.444709,21.7565941 299.576617,23.0433069 C295.687055,24.3282251 292.373591,26.1676681 289.60939,28.5616359 C286.846978,30.9573982 284.680346,33.8161618 283.089812,37.1415159 C281.520747,40.4668699 280.724586,44.1690854 280.724586,48.2481624 C280.724586,52.5928371 281.409821,56.2735176 282.780293,59.2884096 C284.150764,62.3033015 286.161743,64.8749326 288.77029,67.0033027 C291.377048,69.1316729 294.626102,70.9047164 298.470936,72.3242281 C302.339029,73.7437397 306.738492,75.0268633 311.710476,76.1807773 C316.043741,77.2449624 319.555797,78.264283 322.27527,79.2387392 C324.971485,80.2149899 327.093389,81.25764 328.662454,82.364895 C330.208259,83.4739445 331.271001,84.6924633 331.845311,86.022246 C332.41962,87.3538233 332.705881,88.8594747 332.705881,90.5445839 C332.705881,94.1821946 331.226273,97.0642878 328.265267,99.1908633 C325.302473,101.321028 321.301985,102.383419 316.263804,102.383419 C310.429461,102.383419 305.212367,101.340768 300.616099,99.2572627 C296.018043,97.1737571 291.466504,94.1821946 286.956115,90.2789863 L277.144543,101.985022 C282.714095,107.038555 288.77029,110.785635 295.311338,113.224467 C301.854175,115.6633 308.704742,116.881819 315.864829,116.881819 C320.727676,116.881819 325.193337,116.260894 329.260022,115.020841 C333.303449,113.777198 336.795825,111.95929 339.669163,109.565322 C342.56397,107.171354 344.81827,104.246191 346.453532,100.788038 C348.067325,97.3298854 348.884956,93.3836072 348.884956,88.9492036 C348.884956,85.0477899 348.244448,81.6560365 346.961644,78.7739433 C345.67884,75.8918502 343.778787,73.3668782 341.304425,71.191849 C338.828273,69.020409 335.690144,67.1791714 331.932978,65.6717254 C328.1776,64.166074 323.844335,62.7914269 318.981488,61.5495785 C314.539085,60.4853935 310.892845,59.4642783 307.998037,58.4898221 C305.124699,57.515366 302.870399,56.4511809 301.211879,55.2972669 C299.576617,54.1451475 298.451256,52.9032992 297.830429,51.5735165 C297.21318,50.2419392 296.901872,48.6465589 296.901872,46.7855809" id="Fill-4"></path>
                    <polyline id="Fill-5" points="478.42886 48.1032538 478.42886 114.61959 494.631268 114.61959 494.631268 21.8682112 477.231867 21.8682112 448.943057 65.7267666 420.654247 21.8682112 403.256637 21.8682112 403.256637 114.61959 419.459046 114.61959 419.459046 48.3678389 448.543462 91.8295167 449.075658 91.8295167 478.42886 48.1032538"></polyline>
                    <path d="M630.761922,68.755841 C630.761922,73.2885613 629.986243,77.5766585 628.43309,81.6219315 C626.881732,85.6654058 624.73066,89.1746666 621.978077,92.1515126 C619.229085,95.1283587 615.923472,97.4846537 612.064829,99.2185991 C608.20439,100.952544 603.968681,101.817718 599.355905,101.817718 C594.741334,101.817718 590.482283,100.929161 586.578751,99.1520473 C582.675219,97.3731344 579.324717,94.9736706 576.530836,91.9536558 C573.736956,88.9300436 571.562541,85.3973997 570.009388,81.3539254 C568.45803,77.3104512 567.680556,73.0205552 567.680556,68.4896336 C567.680556,63.9551147 568.45803,59.6670174 570.009388,55.6235431 C571.562541,51.5782702 573.713614,48.0690094 576.464401,45.0903646 C579.215188,42.1135186 582.520801,39.7590222 586.379444,38.0250769 C590.238088,36.2929302 594.475593,35.4259575 599.088368,35.4259575 C603.702939,35.4259575 607.961991,36.3145146 611.865523,38.0934274 C615.767259,39.8705415 619.117761,42.2700054 621.911641,45.2918189 C624.707317,48.3118337 626.881732,51.8462763 628.43309,55.8897505 C629.986243,59.9332248 630.761922,64.2231208 630.761922,68.755841 Z M647.929204,68.4896336 C647.929204,61.9117932 646.73157,55.690095 644.336302,49.8227404 C641.94283,43.9589833 638.613875,38.8470821 634.356619,34.492433 C630.097567,30.1359852 624.996401,26.6932762 619.04953,24.1607087 C613.10625,21.6281412 606.541708,20.3600587 599.355905,20.3600587 C592.168307,20.3600587 585.603765,21.6497256 579.65869,24.2272605 C573.713614,26.8047955 568.567559,30.2924719 564.220525,34.6920885 C559.871696,39.0917051 556.503239,44.2251906 554.106176,50.0907465 C551.710908,55.9563024 550.513274,62.1780005 550.513274,68.755841 C550.513274,75.3318828 551.710908,81.5517823 554.106176,87.4191368 C556.503239,93.2864914 559.828603,98.3965939 564.087655,102.751243 C568.344911,107.105892 573.447872,110.5504 579.392948,113.082967 C585.336228,115.615535 591.90077,116.881819 599.088368,116.881819 C606.274171,116.881819 612.840508,115.592152 618.783788,113.016415 C624.73066,110.43888 629.874919,106.951204 634.223748,102.549789 C638.570782,98.1519709 641.94283,93.0184853 644.336302,87.1529295 C646.73157,81.2873736 647.929204,75.0656754 647.929204,68.4896336 Z" id="Fill-6"></path>
                    <path d="M716.016916,46.7855809 C716.016916,43.6809601 717.342659,41.0429296 719.994145,38.8714896 C722.647421,36.6964604 726.359859,35.6107404 731.135039,35.6107404 C735.377059,35.6107404 739.577929,36.4326573 743.732282,38.0729021 C747.886635,39.7131469 752.087505,42.0855797 756.331314,45.188406 L765.081934,32.8183762 C760.308543,29.0048968 755.202375,26.1012687 749.765218,24.107492 C744.32985,22.1119206 738.207458,21.114135 731.39983,21.114135 C726.803563,21.114135 722.559753,21.7565941 718.691661,23.0433069 C714.802099,24.3282251 711.488636,26.1676681 708.724435,28.5616359 C705.962023,30.9573982 703.797179,33.8161618 702.203067,37.1415159 C700.635792,40.4668699 699.83963,44.1690854 699.83963,48.2481624 C699.83963,52.5928371 700.524866,56.2735176 701.895337,59.2884096 C703.265808,62.3033015 705.276787,64.8749326 707.883545,67.0033027 C710.492092,69.1316729 713.741147,70.9047164 717.58777,72.3242281 C721.454073,73.7437397 725.853536,75.0268633 730.82552,76.1807773 C735.156996,77.2449624 738.670842,78.264283 741.390315,79.2387392 C744.08474,80.2149899 746.208434,81.25764 747.777498,82.364895 C749.323304,83.4739445 750.386045,84.6924633 750.960355,86.022246 C751.534665,87.3538233 751.822714,88.8594747 751.822714,90.5445839 C751.822714,94.1821946 750.339528,97.0642878 747.380312,99.1908633 C744.417517,101.321028 740.41703,102.383419 735.377059,102.383419 C729.542716,102.383419 724.325622,101.340768 719.731144,99.2572627 C715.134876,97.1737571 710.581548,94.1821946 706.071159,90.2789863 L696.259587,101.985022 C701.82735,107.038555 707.883545,110.785635 714.426382,113.224467 C720.96743,115.6633 727.817998,116.881819 734.979873,116.881819 C739.84272,116.881819 744.306592,116.260894 748.375066,115.020841 C752.418493,113.777198 755.910869,111.95929 758.784207,109.565322 C761.679014,107.171354 763.933314,104.246191 765.568576,100.788038 C767.18058,97.3298854 768,93.3836072 768,88.9492036 C768,85.0477899 767.357703,81.6560365 766.076689,78.7739433 C764.793884,75.8918502 762.893832,73.3668782 760.41768,71.191849 C757.943317,69.020409 754.805189,67.1791714 751.048022,65.6717254 C747.290855,64.166074 742.95759,62.7914269 738.096532,61.5495785 C733.65413,60.4853935 730.007889,59.4642783 727.113082,58.4898221 C724.239744,57.515366 721.985444,56.4511809 720.326923,55.2972669 C718.691661,54.1451475 717.564511,52.9032992 716.945473,51.5735165 C716.328224,50.2419392 716.016916,48.6465589 716.016916,46.7855809" id="Fill-7"></path>
                    <path d="M196.480122,40.4360909 L152.084588,84.7695716 C151.512147,83.6603834 150.995336,82.5046058 150.532359,81.3058224 C148.981925,77.2776237 148.206708,73.0039342 148.206708,68.4901297 C148.206708,63.9727413 148.981925,59.7008438 150.532359,55.6726451 C152.084588,51.6426544 154.23438,48.146651 156.983529,45.1792591 C159.732679,42.213659 163.036324,39.8680575 166.89267,38.1406627 C170.75081,36.4150598 174.983998,35.5513624 179.594027,35.5513624 C184.205851,35.5513624 188.462367,36.4365626 192.361781,38.208755 C193.811724,38.8663836 195.184504,39.6082316 196.480122,40.4360909 Z M192.562763,99.1030064 C188.704622,100.830401 184.471435,101.692307 179.861405,101.692307 C175.249582,101.692307 170.993066,100.807107 167.091857,99.036706 C165.643709,98.3772856 164.270929,97.6354376 162.977106,96.8057864 L207.370845,52.4758895 C207.943285,53.5832858 208.460097,54.7372715 208.923073,55.9378467 C210.473508,59.9660455 211.248725,64.2397349 211.248725,68.7553314 C211.248725,73.2709278 210.473508,77.5428254 208.923073,81.572816 C207.370845,85.6010147 205.221053,89.0970182 202.471904,92.0626182 C199.722754,95.0282182 196.420904,97.3756116 192.562763,99.1030064 Z M199.279517,112.848697 C205.221053,110.2809 210.364044,106.806399 214.70849,102.421611 C219.052936,98.0404078 222.421182,92.9263156 224.815024,87.0829188 C227.21066,81.239522 228.40758,75.0413283 228.40758,68.4901297 C228.40758,61.9371391 227.21066,55.7389455 224.815024,49.8937568 C223.395587,46.4282157 221.647759,43.2278763 219.573336,40.2909467 L248.448378,11.45743 L236.974447,0 L208.011476,28.92132 C205.411268,27.1509195 202.588545,25.620634 199.5451,24.3286717 C193.603564,21.8056718 187.04293,20.54238 179.861405,20.54238 C172.678086,20.54238 166.117453,21.8271747 160.175916,24.3949721 C154.23438,26.9627696 149.091389,30.4372702 144.746943,34.8202658 C140.402497,39.2032614 137.032456,44.3173535 134.638615,50.1607504 C132.244773,56.0041472 131.047852,62.2023408 131.047852,68.7553314 C131.047852,75.30653 132.244773,81.5029318 134.638615,87.3481205 C136.059846,90.8154535 137.807673,94.0157928 139.882097,96.9545143 L111.00885,125.784447 L122.48278,137.241877 L151.443957,108.322349 C154.044164,110.09275 156.866888,111.623035 159.910332,112.914997 C165.851869,115.437997 172.412502,116.699497 179.594027,116.699497 C186.777347,116.699497 193.33798,115.414703 199.279517,112.848697 Z" id="Fill-8"></path>
                </g>
            </g>
            <text id="Internet-of-Blockcha" font-family="SFProText-Bold, SF Pro Text" font-size="52" font-weight="bold" letter-spacing="0.649999976" fill="#666666">
                <tspan x="0.103906512" y="233">INTERNET OF BLOCKCHAIN</tspan>
                <tspan x="732.780859" y="233">S</tspan>
            </text>
        </g>
        <g id="brandmark/1024" transform="translate(128.000000, 96.000000)">
            <g id="Inner-Border">
                <use fill="#FFFFFF" fill-rule="evenodd" xlink:href="#path-1"></use>
                <path stroke="#B8B8B8" stroke-width="3.125" d="M160,1.8697 C72.6671049,1.8697 1.8697,72.6671049 1.8697,160 C1.8697,247.332895 72.6671049,318.1303 160,318.1303 C247.332895,318.1303 318.1303,247.332895 318.1303,160 C318.1303,72.6671049 247.332895,1.8697 160,1.8697 Z"></path>
            </g>
            <path d="M159.692898,67.8694578 C210.575186,67.8694578 251.82344,109.117712 251.82344,160 C251.82344,210.882288 210.575186,252.130542 159.692898,252.130542 C108.81061,252.130542 67.5623561,210.882288 67.5623561,160 C67.5623561,109.117712 108.81061,67.8694578 159.692898,67.8694578 Z" id="15mm-Inset-Area" fill="#DDDDDD" fill-rule="evenodd"></path>
            <g id="Ellipse-1">
                <use fill-opacity="0" fill="#000000" fill-rule="evenodd" xlink:href="#path-2"></use>
                <path stroke="#000000" stroke-width="6.25" d="M160.475069,23.3072096 C154.340275,23.3072096 146.998717,37.272319 141.542147,61.8121949 C135.802933,87.6232092 132.510832,122.62759 132.510832,160 C132.510832,197.37241 135.802933,232.376791 141.542147,258.187805 C146.998717,282.727681 154.340275,296.69279 160.475069,296.69279 C166.609835,296.69279 173.951394,282.727669 179.407968,258.187804 C185.147195,232.376769 188.439307,197.372384 188.439307,160 C188.439307,122.627616 185.147195,87.6232312 179.407968,61.8121958 C173.951394,37.2723306 166.609835,23.3072096 160.475069,23.3072096 Z"></path>
            </g>
            <g id="Ellipse-1-copy">
                <use fill-opacity="0" fill="#000000" fill-rule="evenodd" xlink:href="#path-3"></use>
                <path stroke="#000000" stroke-width="6.25" d="M278.928073,91.6550889 L278.928101,91.6551363 C275.861016,86.3462222 260.086476,86.974691 236.092472,94.5219501 C210.855571,102.46016 178.875716,117.112992 146.489947,135.799156 C114.104256,154.485201 85.416626,174.836658 65.9191851,192.709515 C47.3830152,209.701197 38.9521235,223.037866 42.0180086,228.344864 C45.0850935,233.653778 60.8596327,233.025309 84.8536371,225.47805 C110.090539,217.53984 142.070393,202.887008 174.456162,184.200844 C206.841897,165.514773 235.529516,145.16335 255.026925,127.29054 C273.563112,110.298861 281.993991,96.9621982 278.928073,91.6550889 Z"></path>
            </g>
            <g id="Ellipse-1-copy-2">
                <use fill-opacity="0" fill="#000000" fill-rule="evenodd" xlink:href="#path-4"></use>
                <path stroke="#000000" stroke-width="6.25" d="M278.928101,228.344864 L278.92808,228.344899 C281.993986,223.037866 273.563094,209.701197 255.026924,192.709515 C235.529483,174.836658 206.841853,154.485201 174.456158,135.799153 C142.070393,117.112992 110.090539,102.46016 84.8536371,94.5219501 C60.8596327,86.974691 45.0850935,86.3462222 42.018036,91.6550889 C38.9521177,96.9621982 47.3829969,110.298861 65.9191839,127.29054 C85.4165935,145.16335 114.104212,165.514773 146.489951,184.200847 C178.875716,202.887008 210.855571,217.53984 236.092472,225.47805 C260.086476,233.025309 275.861016,233.653778 278.928101,228.344864 Z"></path>
            </g>
            <path d="M71.108453,120.844549 C76.5385342,120.844549 80.9405036,125.248658 80.9405036,130.681394 C80.9405036,136.114129 76.5385342,140.518239 71.108453,140.518239 C65.6783717,140.518239 61.2764023,136.114129 61.2764023,130.681394 C61.2764023,125.248658 65.6783717,120.844549 71.108453,120.844549 Z" id="Dot-copy" fill="#000000" fill-rule="evenodd"></path>
            <path d="M227.370455,87.1593247 C232.803191,87.1593247 237.2073,91.5634134 237.2073,96.9961695 C237.2073,102.428905 232.803191,106.833014 227.370455,106.833014 C221.937699,106.833014 217.53361,102.428905 217.53361,96.9961695 C217.53361,91.5634134 221.937699,87.1593247 227.370455,87.1593247 Z" id="Dot-copy-2" fill="#000000" fill-rule="evenodd"></path>
            <path d="M140.662194,241.554705 C146.094929,241.554705 150.499038,245.956654 150.499038,251.386755 C150.499038,256.816837 146.094929,261.218806 140.662194,261.218806 C135.229458,261.218806 130.825349,256.816837 130.825349,251.386755 C130.825349,245.956654 135.229458,241.554705 140.662194,241.554705 Z" id="Dot-copy-3" fill="#000000" fill-rule="evenodd"></path>
            <path d="M159.927168,143.272955 C169.125016,143.272955 176.581346,150.729286 176.581346,159.927168 C176.581346,169.125016 169.125016,176.581346 159.927168,176.581346 C150.72932,176.581346 143.272955,169.125016 143.272955,159.927168 C143.272955,150.729286 150.72932,143.272955 159.927168,143.272955 Z" id="Nucleus" fill="#000000" fill-rule="evenodd"></path>
        </g>
    </g>
</svg>