<?xml version="1.0" encoding="utf-8"?>
<!-- Generator: Adobe Illustrator 22.0.1, SVG Export Plug-In . SVG Version: 6.00 Build 0)  -->
<svg version="1.1" id="Layer_1" xmlns="http://www.w3.org/2000/svg" xmlns:xlink="http://www.w3.org/1999/xlink" x="0px" y="0px"
	 viewBox="0 0 573.7 122.9" style="enable-background:new 0 0 573.7 122.9;" xml:space="preserve">
<style type="text/css">
	.st0{fill:#0064DC;}
</style>
<path class="st0" d="M177.6,78.8c0-12.4-5.4-23.3-18.6-23.3s-18.6,11-18.6,23.3c0,12.2,5.4,23.2,18.6,23.2S177.6,91,177.6,78.8
	 M110.9,78.8c0-27.5,20.8-43.3,48.1-43.3s48.1,15.9,48.1,43.3c0,27.3-20.8,43.2-48.1,43.2S110.9,106.1,110.9,78.8"/>
<path class="st0" d="M277.8,78.8c0-12.4-5.4-23.3-18.6-23.3c-13.2,0-18.6,11-18.6,23.3c0,12.2,5.4,23.2,18.6,23.2
	C272.4,101.9,277.8,91,277.8,78.8 M211.2,78.8c0-27.5,20.8-43.3,48.1-43.3s48.1,15.9,48.1,43.3c0,27.3-20.8,43.2-48.1,43.2
	S211.2,106.1,211.2,78.8"/>
<path class="st0" d="M30.5,31.2h11.4c21.6,0,34.4,11.4,34.4,33.5S63.5,98.1,41.9,98.1H30.5V31.2z M106.8,64.2
	c0-42.8-27-54.9-65.5-54.9H1V120h40.3c38.6,0,65.5-12.1,65.5-54.9c0-0.2,0-0.3,0-0.5S106.8,64.3,106.8,64.2"/>
<rect x="418" y="1" class="st0" width="28.6" height="119"/>
<path class="st0" d="M359.5,101.9c-13.2,0-18.6-10.9-18.6-23.2c0-12.4,5.4-23.3,18.6-23.3s18.6,11,18.6,23.3
	C378.1,91,372.7,101.9,359.5,101.9 M379.1,1v37.5c-5.9-2-12.5-3.1-19.5-3.1c-27.3,0-48.1,15.9-48.1,43.3c0,27.3,20.8,43.2,48.1,43.2
	c7,0,14.5-3,19.5-6.2v4.2h28.6V1L379.1,1L379.1,1z"/>
<path class="st0" d="M486.2,70.8c2-8.8,7.5-15.4,17.7-15.4c10.2,0,15.8,6.6,17.7,15.4H486.2z M516.4,37.3c-4.2-1.2-9-1.9-14.3-1.9
	c-0.2,0-0.4,0-0.6,0c-0.2,0-0.4,0-0.7,0c-27.3,0-48.1,15.9-48.1,43.3c0,27.3,20.8,43.2,48.1,43.2c0.9,0,1.7,0,2.5,0
	c0.8,0,1.7,0,2.5,0c10.6,0,21.1-1.6,30.3-5.2V96.5c-8.6,4.6-17.5,6.3-25.2,6.3c-3.7,0-6.9-0.3-9.8-1c-8.2-1.8-13.3-6.5-14.4-14.9
	h61.5c0.2-1.2,0.4-2.4,0.5-3.6c0.1-1.5,0.2-3.1,0.2-4.7C548.9,56.8,535.6,42.3,516.4,37.3"/>
</svg>
