<?xml version="1.0" encoding="utf-8"?>
<!-- Generator: Adobe Illustrator 22.0.1, SVG Export Plug-In . SVG Version: 6.00 Build 0)  -->
<svg version="1.1" id="Layer_1" xmlns="http://www.w3.org/2000/svg" xmlns:xlink="http://www.w3.org/1999/xlink" x="0px" y="0px"
	 viewBox="0 0 612 144" style="enable-background:new 0 0 612 144;" xml:space="preserve">
<style type="text/css">
	.Arched_x0020_Green{fill:url(#SVGID_1_);stroke:#FFFFFF;stroke-width:0.25;stroke-miterlimit:1;}
	.st0{fill:#0064A3;}
</style>
<linearGradient id="SVGID_1_" gradientUnits="userSpaceOnUse" x1="0" y1="144" x2="0.7071" y2="143.2929">
	<stop  offset="0" style="stop-color:#1DA238"/>
	<stop  offset="0.9831" style="stop-color:#24391D"/>
</linearGradient>
<polygon class="st0" points="44.6,97.6 54.1,46.4 83.4,46.3 83.7,77.8 88.9,46.4 118.1,46.4 118.1,97.6 90.6,97.6 90.1,54.4 
	83.3,97.6 55.9,97.6 55.9,52.4 46.9,97.6 "/>
<g>
	<path d="M138.7,59.6c0.1-0.5,0.3-0.8,0.5-0.8c0.2,0,0.4,0.2,0.8,0.9l8.2,16.9l8.2-17.1c0.2-0.5,0.4-0.7,0.7-0.7
		c0.3,0,0.5,0.3,0.5,0.9l2.7,18.5c0.3,1.9,0.6,2.8,1.5,3c0.9,0.3,1.5,0.3,1.9,0.3c0.3,0,0.5,0,0.5,0.2c0,0.2-0.4,0.3-0.8,0.3
		c-0.8,0-4.9-0.1-6.1-0.2c-0.7-0.1-0.9-0.2-0.9-0.3c0-0.2,0.1-0.2,0.3-0.3c0.2-0.1,0.3-0.5,0.2-1.3l-1.8-13.2H155l-6.5,13.6
		c-0.7,1.4-0.8,1.7-1.1,1.7s-0.6-0.6-1-1.5c-0.7-1.4-3.1-6-3.5-6.8c-0.3-0.6-2.1-4.4-3.1-6.7h-0.1L138,79.1
		c-0.1,0.5-0.1,0.9-0.1,1.4c0,0.6,0.4,0.8,0.9,1c0.5,0.1,1,0.1,1.3,0.1c0.2,0,0.4,0.1,0.4,0.2c0,0.3-0.3,0.3-0.7,0.3
		c-1.3,0-2.6-0.1-3.1-0.1c-0.6,0-2,0.1-3,0.1c-0.3,0-0.5-0.1-0.5-0.3c0-0.1,0.2-0.2,0.5-0.2c0.2,0,0.4,0,0.9-0.1
		c0.8-0.2,1.1-1.3,1.2-2.4L138.7,59.6z"/>
	<path d="M170.4,74.3c-0.1,0-0.2,0.1-0.3,0.2l-1.6,4.3c-0.3,0.8-0.5,1.5-0.5,1.8c0,0.5,0.3,0.9,1.2,0.9h0.4c0.4,0,0.5,0.1,0.5,0.2
		c0,0.2-0.2,0.3-0.5,0.3c-1,0-2.2-0.1-3.2-0.1c-0.3,0-2,0.1-3.5,0.1c-0.4,0-0.6-0.1-0.6-0.3c0-0.2,0.1-0.2,0.4-0.2
		c0.3,0,0.7,0,0.9-0.1c1.4-0.2,1.9-1.2,2.5-2.7l7.5-18.8c0.4-0.9,0.5-1.2,0.8-1.2c0.3,0,0.5,0.3,0.8,1c0.7,1.6,5.5,13.9,7.4,18.4
		c1.1,2.7,2,3.1,2.6,3.3c0.5,0.1,0.9,0.1,1.3,0.1c0.2,0,0.4,0,0.4,0.2c0,0.2-0.3,0.3-1.4,0.3c-1.1,0-3.3,0-5.7-0.1
		c-0.5,0-0.9,0-0.9-0.2c0-0.2,0.1-0.2,0.4-0.3c0.2-0.1,0.4-0.3,0.3-0.7l-2.4-6.4c-0.1-0.2-0.1-0.2-0.3-0.2H170.4z M176.5,72.8
		c0.1,0,0.2-0.1,0.1-0.2l-2.7-7.4c0-0.1-0.1-0.3-0.1-0.3c-0.1,0-0.1,0.2-0.2,0.3l-2.8,7.4c0,0.1,0,0.2,0.1,0.2H176.5z"/>
	<path d="M191.9,78.1c0.1,2.3,0.5,3.1,1.1,3.3c0.5,0.2,1.1,0.2,1.6,0.2c0.3,0,0.5,0.1,0.5,0.2c0,0.2-0.3,0.3-0.7,0.3
		c-2,0-3.1-0.1-3.7-0.1c-0.3,0-1.7,0.1-3.2,0.1c-0.4,0-0.7,0-0.7-0.3c0-0.2,0.2-0.2,0.5-0.2c0.4,0,0.9,0,1.3-0.1
		c0.8-0.2,0.9-1.1,0.9-3.7l0.3-17.8c0-0.6,0.1-1,0.4-1c0.3,0,0.6,0.4,1.1,0.9c0.4,0.4,4.9,5.3,9.3,9.6c2,2,6.1,6.4,6.6,6.8h0.1
		L207,62.9c0-1.8-0.3-2.4-1-2.7c-0.4-0.2-1.2-0.2-1.6-0.2c-0.4,0-0.5-0.1-0.5-0.3c0-0.2,0.3-0.3,0.8-0.3c1.6,0,3,0.1,3.6,0.1
		c0.3,0,1.5-0.1,2.9-0.1c0.4,0,0.7,0,0.7,0.3c0,0.2-0.2,0.3-0.5,0.3c-0.3,0-0.5,0-0.9,0.1c-0.8,0.2-1.1,0.9-1.1,2.5L209,81.6
		c0,0.7-0.1,0.9-0.4,0.9c-0.3,0-0.7-0.3-1-0.7c-1.9-1.8-5.7-5.7-8.8-8.8c-3.3-3.2-6.6-7-7.1-7.6h-0.1L191.9,78.1z"/>
	<path d="M220.3,78.1c0.1,2.3,0.5,3.1,1.1,3.3c0.5,0.2,1.1,0.2,1.6,0.2c0.3,0,0.5,0.1,0.5,0.2c0,0.2-0.3,0.3-0.7,0.3
		c-2,0-3.1-0.1-3.7-0.1c-0.3,0-1.7,0.1-3.2,0.1c-0.4,0-0.7,0-0.7-0.3c0-0.2,0.2-0.2,0.5-0.2c0.4,0,0.9,0,1.3-0.1
		c0.8-0.2,0.9-1.1,0.9-3.7l0.3-17.8c0-0.6,0.1-1,0.4-1c0.3,0,0.6,0.4,1.1,0.9c0.4,0.4,4.9,5.3,9.3,9.6c2,2,6.1,6.4,6.6,6.8h0.2
		l-0.3-13.5c0-1.8-0.3-2.4-1-2.7c-0.4-0.2-1.2-0.2-1.6-0.2c-0.4,0-0.5-0.1-0.5-0.3c0-0.2,0.3-0.3,0.8-0.3c1.6,0,3,0.1,3.6,0.1
		c0.3,0,1.5-0.1,2.9-0.1c0.4,0,0.7,0,0.7,0.3c0,0.2-0.2,0.3-0.5,0.3c-0.3,0-0.5,0-0.9,0.1c-0.8,0.2-1.1,0.9-1.1,2.5l-0.3,18.9
		c0,0.7-0.1,0.9-0.4,0.9c-0.3,0-0.7-0.3-1-0.7c-1.9-1.8-5.7-5.7-8.8-8.8c-3.3-3.2-6.6-7-7.1-7.6H220L220.3,78.1z"/>
	<path d="M247,68.2c0-4.6,0-5.4-0.1-6.4c-0.1-1-0.4-1.5-1-1.7c-0.3-0.1-0.7-0.1-1.1-0.1c-0.3,0-0.5-0.1-0.5-0.3
		c0-0.2,0.2-0.2,0.7-0.2c1.1,0,3,0.1,3.9,0.1c0.8,0,2.5-0.1,3.7-0.1c0.4,0,0.6,0.1,0.6,0.2c0,0.2-0.2,0.3-0.5,0.3
		c-0.3,0-0.5,0-0.9,0.1c-0.8,0.1-1,0.7-1.1,1.7c-0.1,1-0.1,1.8-0.1,6.4v5.3c0,2.9,0,5.3,0.1,6.6c0.1,0.8,0.3,1.3,1.2,1.5
		c0.4,0.1,1.1,0.1,1.5,0.1c0.3,0,0.5,0.1,0.5,0.2c0,0.2-0.2,0.3-0.6,0.3c-2,0-3.9-0.1-4.7-0.1c-0.7,0-2.6,0.1-3.8,0.1
		c-0.4,0-0.6-0.1-0.6-0.3c0-0.2,0.1-0.2,0.5-0.2c0.5,0,0.8-0.1,1.1-0.1c0.6-0.1,0.8-0.6,0.9-1.5c0.1-1.3,0.1-3.6,0.1-6.5V68.2z"/>
	<path d="M262.3,78.1c0.1,2.3,0.5,3.1,1.1,3.3c0.5,0.2,1.1,0.2,1.6,0.2c0.3,0,0.5,0.1,0.5,0.2c0,0.2-0.3,0.3-0.7,0.3
		c-2,0-3.1-0.1-3.7-0.1c-0.3,0-1.7,0.1-3.2,0.1c-0.4,0-0.7,0-0.7-0.3c0-0.2,0.2-0.2,0.5-0.2c0.4,0,0.9,0,1.3-0.1
		c0.8-0.2,0.9-1.1,0.9-3.7l0.3-17.8c0-0.6,0.1-1,0.4-1c0.3,0,0.6,0.4,1.1,0.9c0.4,0.4,4.9,5.3,9.3,9.6c2,2,6.1,6.4,6.6,6.8h0.2
		l-0.3-13.5c0-1.8-0.3-2.4-1-2.7c-0.4-0.2-1.2-0.2-1.6-0.2c-0.4,0-0.5-0.1-0.5-0.3c0-0.2,0.3-0.3,0.8-0.3c1.6,0,3,0.1,3.6,0.1
		c0.3,0,1.5-0.1,2.9-0.1c0.4,0,0.7,0,0.7,0.3c0,0.2-0.2,0.3-0.5,0.3c-0.3,0-0.5,0-0.9,0.1c-0.8,0.2-1.1,0.9-1.1,2.5l-0.3,18.9
		c0,0.7-0.1,0.9-0.4,0.9c-0.3,0-0.7-0.3-1-0.7c-1.9-1.8-5.7-5.7-8.8-8.8c-3.3-3.2-6.6-7-7.1-7.6h-0.1L262.3,78.1z"/>
	<path d="M307.1,80.1c0,0.8,0,0.9-0.4,1.1c-1.9,1-4.9,1.3-7.2,1.3c-7.3,0-13.9-3.5-13.9-11.8c0-4.8,2.5-8.2,5.2-9.8
		c2.9-1.7,5.5-1.9,8.1-1.9c2.1,0,4.7,0.4,5.3,0.5c0.6,0.1,1.7,0.3,2.4,0.3c0.4,0,0.4,0.2,0.4,0.4c0,0.3-0.2,1.2-0.2,4.9
		c0,0.5-0.1,0.6-0.3,0.6c-0.2,0-0.3-0.2-0.3-0.4c-0.1-0.7-0.2-1.6-1-2.5c-0.9-1-3.3-2.3-6.7-2.3c-1.6,0-3.8,0.1-5.9,1.9
		c-1.7,1.4-2.8,3.7-2.8,7.3c0,6.5,4.1,11.3,10.4,11.3c0.8,0,1.8,0,2.6-0.3c0.4-0.2,0.6-0.6,0.6-1.1v-2.8c0-1.5,0-2.6,0-3.5
		c0-1-0.3-1.5-1.3-1.7c-0.2-0.1-0.8-0.1-1.2-0.1c-0.3,0-0.5-0.1-0.5-0.2c0-0.2,0.2-0.3,0.6-0.3c1.6,0,3.4,0.1,4.3,0.1
		c0.9,0,2.5-0.1,3.5-0.1c0.4,0,0.6,0.1,0.6,0.3c0,0.2-0.2,0.2-0.4,0.2c-0.2,0-0.5,0-0.8,0.1c-0.8,0.1-1.1,0.7-1.1,1.7
		c0,0.9,0,2.1,0,3.6V80.1z"/>
	<path d="M324.4,68.2c0-4.6,0-5.4-0.1-6.4c-0.1-1-0.3-1.5-1.3-1.7c-0.2-0.1-0.8-0.1-1.2-0.1c-0.3,0-0.5-0.1-0.5-0.3s0.2-0.3,0.7-0.3
		c1.6,0,3.5,0.1,4.3,0.1c1.2,0,3-0.1,4.4-0.1c3.7,0,5.1,1.3,5.6,1.7c0.7,0.6,1.5,2,1.5,3.6c0,4.3-3.1,7.3-7.4,7.3
		c-0.2,0-0.5,0-0.6,0c-0.1,0-0.4-0.1-0.4-0.3c0-0.2,0.2-0.3,0.8-0.3c1.7,0,4-1.9,4-4.9c0-1-0.1-3-1.8-4.5c-1.1-1-2.3-1.2-3-1.2
		c-0.4,0-0.9,0-1.2,0.1c-0.1,0.1-0.2,0.2-0.2,0.6v12c0,2.8,0,5.1,0.1,6.4c0.1,0.8,0.3,1.5,1.2,1.6c0.4,0.1,1.1,0.1,1.5,0.1
		c0.3,0,0.5,0.1,0.5,0.2c0,0.2-0.2,0.3-0.6,0.3c-2,0-3.9-0.1-4.6-0.1c-0.7,0-2.6,0.1-3.8,0.1c-0.4,0-0.6-0.1-0.6-0.3
		c0-0.2,0.1-0.2,0.5-0.2c0.5,0,0.8-0.1,1.1-0.1c0.6-0.1,0.8-0.8,0.9-1.6c0.1-1.3,0.1-3.6,0.1-6.4V68.2z"/>
	<path d="M342.8,68.2c0-4.6,0-5.4-0.1-6.4c-0.1-1-0.3-1.5-1.3-1.7c-0.2-0.1-0.8-0.1-1.2-0.1c-0.3,0-0.5-0.1-0.5-0.3s0.2-0.3,0.7-0.3
		c1.6,0,3.5,0.1,4.4,0.1c0.7,0,2.6-0.1,3.7-0.1c0.4,0,0.7,0.1,0.7,0.3S349,60,348.7,60c-0.3,0-0.5,0-0.9,0.1c-0.8,0.1-1,0.7-1.1,1.7
		c-0.1,1-0.1,1.8-0.1,6.4v4.2c0,4.3,0.9,6.2,2.3,7.4c1.4,1.1,2.7,1.2,3.8,1.2c1.3,0,2.9-0.4,4.1-1.6c1.7-1.6,1.7-4.3,1.7-7.4v-3.8
		c0-4.6,0-5.4-0.1-6.4c-0.1-1-0.3-1.5-1.3-1.7c-0.2-0.1-0.8-0.1-1.1-0.1c-0.3,0-0.5-0.1-0.5-0.3s0.2-0.3,0.6-0.3
		c1.5,0,3.4,0.1,3.5,0.1c0.4,0,2.2-0.1,3.4-0.1c0.4,0,0.6,0.1,0.6,0.3s-0.2,0.3-0.5,0.3c-0.3,0-0.5,0-0.9,0.1
		c-0.8,0.1-1,0.7-1.1,1.7c-0.1,1-0.1,1.8-0.1,6.4v3.2c0,3.3-0.3,6.9-2.8,9c-2.1,1.8-4.3,2.2-6.2,2.2c-1.6,0-4.5-0.1-6.7-2.1
		c-1.5-1.4-2.7-3.6-2.7-8V68.2z"/>
	<path d="M369.6,68.2c0-4.6,0-5.4-0.1-6.4c-0.1-1-0.3-1.5-1.3-1.7c-0.2-0.1-0.8-0.1-1.2-0.1c-0.3,0-0.5-0.1-0.5-0.3s0.2-0.3,0.7-0.3
		c1.6,0,3.5,0.1,4.1,0.1c1.5,0,2.6-0.1,3.7-0.1c5.4,0,6.4,2.9,6.4,4.5c0,2.5-1.4,3.9-3.1,5.2c2.5,0.8,5.5,3,5.5,6.5
		c0,3.2-2.5,6.5-8,6.5c-0.7,0-3.4-0.2-4.3-0.2c-0.7,0-2.6,0.1-3.8,0.1c-0.4,0-0.6-0.1-0.6-0.3c0-0.2,0.1-0.2,0.5-0.2
		c0.5,0,0.8-0.1,1.1-0.1c0.6-0.1,0.8-0.8,0.9-1.6c0.1-1.3,0.1-3.6,0.1-6.4V68.2z M373.2,68.7c0,0.2,0.1,0.3,0.2,0.3
		c0.3,0.1,0.7,0.1,1.4,0.1c1,0,1.7-0.1,2.2-0.6c0.8-0.6,1.2-1.7,1.2-3.2c0-2-1.2-4.7-3.7-4.7c-0.4,0-0.7,0-1,0.1
		c-0.2,0.1-0.3,0.2-0.3,0.5V68.7z M377.2,71.1c-0.6-0.5-1.3-0.7-2.5-0.7c-0.5,0-0.8,0-1.3,0c-0.1,0-0.2,0.1-0.2,0.2v7.1
		c0,2,0.1,2.5,1,2.9c0.8,0.3,1.5,0.4,2.2,0.4c1.3,0,3.6-0.7,3.6-3.8C380.1,75.2,379.5,72.7,377.2,71.1z"/>
	<path d="M394.6,73.4c0,3.8,0,5.9,0.6,6.4c0.5,0.5,1.3,0.7,3.6,0.7c1.6,0,2.8,0,3.5-0.8c0.4-0.4,0.7-1.2,0.8-1.8
		c0-0.3,0.1-0.5,0.3-0.5c0.2,0,0.2,0.2,0.2,0.5c0,0.3-0.2,2.6-0.4,3.5c-0.2,0.7-0.3,0.8-1.9,0.8c-4.3,0-6.3-0.2-8.7-0.2
		c-0.7,0-2.6,0.1-3.8,0.1c-0.4,0-0.6-0.1-0.6-0.3c0-0.2,0.1-0.2,0.5-0.2c0.4,0,0.8-0.1,1.1-0.1c0.6-0.1,0.8-0.8,0.9-1.6
		c0.2-1.3,0.2-3.6,0.2-6.4v-5.3c0-4.6,0-5.4-0.1-6.4c-0.1-1-0.3-1.5-1.3-1.7c-0.2-0.1-0.6-0.1-1-0.1c-0.3,0-0.5-0.1-0.5-0.3
		s0.2-0.3,0.7-0.3c1.4,0,3.3,0.1,4.1,0.1c0.7,0,2.9-0.1,4.1-0.1c0.4,0,0.6,0.1,0.6,0.3s-0.2,0.3-0.5,0.3c-0.3,0-0.8,0-1.2,0.1
		c-0.8,0.1-1.1,0.7-1.1,1.7c-0.1,1-0.1,1.8-0.1,6.4V73.4z"/>
	<path d="M409,68.2c0-4.6,0-5.4-0.1-6.4c-0.1-1-0.4-1.5-1-1.7c-0.3-0.1-0.7-0.1-1.1-0.1c-0.3,0-0.5-0.1-0.5-0.3
		c0-0.2,0.2-0.2,0.7-0.2c1.1,0,3,0.1,3.9,0.1c0.8,0,2.5-0.1,3.7-0.1c0.4,0,0.6,0.1,0.6,0.2c0,0.2-0.2,0.3-0.5,0.3
		c-0.3,0-0.5,0-0.9,0.1c-0.8,0.1-1,0.7-1.1,1.7c-0.1,1-0.1,1.8-0.1,6.4v5.3c0,2.9,0,5.3,0.1,6.6c0.1,0.8,0.3,1.3,1.2,1.5
		c0.4,0.1,1.1,0.1,1.5,0.1c0.3,0,0.5,0.1,0.5,0.2c0,0.2-0.2,0.3-0.6,0.3c-2,0-3.9-0.1-4.7-0.1c-0.7,0-2.6,0.1-3.8,0.1
		c-0.4,0-0.6-0.1-0.6-0.3c0-0.2,0.1-0.2,0.5-0.2c0.5,0,0.8-0.1,1.1-0.1c0.6-0.1,0.8-0.6,0.9-1.5c0.1-1.3,0.1-3.6,0.1-6.5V68.2z"/>
	<path d="M422.7,79.3c-2.9-2.6-3.7-5.9-3.7-8.8c0-2,0.6-5.6,3.5-8.2c2.2-2,5-3.2,9.5-3.2c1.9,0,3,0.1,4.3,0.3c1.1,0.1,2.1,0.4,3,0.5
		c0.3,0,0.5,0.2,0.5,0.4c0,0.2-0.1,0.6-0.2,1.6c-0.1,1,0,2.6-0.1,3.2c0,0.5-0.1,0.7-0.4,0.7c-0.2,0-0.3-0.2-0.3-0.7
		c0-0.9-0.4-2-1.2-2.8c-1-1.1-3.3-1.9-6.1-1.9c-2.6,0-4.3,0.7-5.6,1.9c-2.2,2-2.8,4.9-2.8,7.8c0,7.1,5.4,10.7,9.4,10.7
		c2.7,0,4.3-0.3,5.5-1.7c0.5-0.6,0.9-1.4,1-2c0.1-0.5,0.2-0.6,0.4-0.6c0.2,0,0.3,0.2,0.3,0.5c0,0.4-0.4,3-0.7,4
		c-0.1,0.5-0.3,0.7-0.8,0.9c-1.2,0.5-3.5,0.7-5.4,0.7C428.9,82.6,425.4,81.7,422.7,79.3z"/>
	<path d="M448.4,74.3c-0.2,0-0.2,0.1-0.3,0.2l-1.6,4.3c-0.3,0.8-0.4,1.5-0.4,1.8c0,0.5,0.3,0.9,1.2,0.9h0.5c0.4,0,0.5,0.1,0.5,0.2
		c0,0.2-0.2,0.3-0.5,0.3c-1,0-2.2-0.1-3.2-0.1c-0.3,0-2,0.1-3.5,0.1c-0.4,0-0.6-0.1-0.6-0.3c0-0.2,0.1-0.2,0.4-0.2
		c0.3,0,0.7,0,0.9-0.1c1.4-0.2,2-1.2,2.5-2.7l7.5-18.8c0.4-0.9,0.5-1.2,0.8-1.2c0.3,0,0.4,0.3,0.8,1c0.7,1.6,5.5,13.9,7.4,18.4
		c1.1,2.7,2,3.1,2.6,3.3c0.5,0.1,0.9,0.1,1.3,0.1c0.2,0,0.4,0,0.4,0.2c0,0.2-0.3,0.3-1.4,0.3c-1.1,0-3.3,0-5.7-0.1
		c-0.5,0-0.9,0-0.9-0.2c0-0.2,0.1-0.2,0.4-0.3c0.2-0.1,0.4-0.3,0.3-0.7l-2.4-6.4c-0.1-0.2-0.1-0.2-0.3-0.2H448.4z M454.5,72.8
		c0.2,0,0.2-0.1,0.2-0.2l-2.7-7.4c0-0.1-0.1-0.3-0.1-0.3c-0.1,0-0.2,0.2-0.2,0.3l-2.8,7.4c0,0.1,0,0.2,0.1,0.2H454.5z"/>
	<path d="M470.2,61.1l-4.5,0.1c-1.7,0.1-2.5,0.2-2.9,0.9c-0.3,0.5-0.5,0.8-0.5,1c-0.1,0.2-0.1,0.4-0.3,0.4c-0.2,0-0.3-0.2-0.3-0.5
		c0-0.5,0.6-3.2,0.6-3.5c0.1-0.4,0.2-0.6,0.4-0.6c0.2,0,0.5,0.3,1.3,0.4c0.9,0.1,2,0.2,3,0.2h11.9c1.9,0,2.6-0.3,2.9-0.3
		c0.2,0,0.2,0.2,0.2,0.6c0,0.6-0.1,2.7-0.1,3.5c0,0.3-0.1,0.5-0.3,0.5c-0.2,0-0.3-0.2-0.3-0.6l0-0.3c-0.1-0.8-0.9-1.6-3.5-1.7
		l-3.8-0.1v12.3c0,2.8,0,5.1,0.2,6.4c0.1,0.8,0.3,1.5,1.2,1.6c0.4,0.1,1.1,0.1,1.5,0.1c0.3,0,0.5,0.1,0.5,0.2c0,0.2-0.2,0.3-0.6,0.3
		c-2,0-3.9-0.1-4.7-0.1c-0.7,0-2.6,0.1-3.8,0.1c-0.4,0-0.6-0.1-0.6-0.3c0-0.2,0.1-0.2,0.5-0.2c0.5,0,0.8-0.1,1.1-0.1
		c0.6-0.1,0.8-0.8,0.9-1.6c0.1-1.3,0.1-3.6,0.1-6.4V61.1z"/>
	<path d="M487.5,68.2c0-4.6,0-5.4-0.1-6.4c-0.1-1-0.4-1.5-1-1.7c-0.3-0.1-0.7-0.1-1.1-0.1c-0.3,0-0.5-0.1-0.5-0.3
		c0-0.2,0.2-0.2,0.7-0.2c1.1,0,3,0.1,3.9,0.1c0.8,0,2.5-0.1,3.7-0.1c0.4,0,0.6,0.1,0.6,0.2c0,0.2-0.2,0.3-0.5,0.3
		c-0.3,0-0.5,0-0.9,0.1c-0.8,0.1-1,0.7-1.1,1.7c-0.1,1-0.1,1.8-0.1,6.4v5.3c0,2.9,0,5.3,0.1,6.6c0.1,0.8,0.3,1.3,1.2,1.5
		c0.4,0.1,1.1,0.1,1.5,0.1c0.3,0,0.5,0.1,0.5,0.2c0,0.2-0.2,0.3-0.6,0.3c-2,0-3.9-0.1-4.7-0.1c-0.7,0-2.6,0.1-3.8,0.1
		c-0.4,0-0.6-0.1-0.6-0.3c0-0.2,0.1-0.2,0.5-0.2c0.4,0,0.8-0.1,1.1-0.1c0.6-0.1,0.8-0.6,0.9-1.5c0.2-1.3,0.2-3.6,0.2-6.5V68.2z"/>
	<path d="M497.5,70.8c0-5.1,3.4-11.8,12.4-11.8c7.5,0,12.1,4.3,12.1,11.2c0,6.9-4.8,12.3-12.4,12.3C501,82.6,497.5,76.1,497.5,70.8z
		 M517.8,71.4c0-6.7-3.9-10.9-8.8-10.9c-3.5,0-7.4,1.9-7.4,9.4c0,6.2,3.4,11.2,9.2,11.2C512.9,81.1,517.8,80,517.8,71.4z"/>
	<path d="M530.1,78.1c0.1,2.3,0.5,3.1,1,3.3c0.5,0.2,1.1,0.2,1.6,0.2c0.3,0,0.5,0.1,0.5,0.2c0,0.2-0.3,0.3-0.7,0.3
		c-1.9,0-3.1-0.1-3.7-0.1c-0.3,0-1.7,0.1-3.2,0.1c-0.4,0-0.7,0-0.7-0.3c0-0.2,0.2-0.2,0.5-0.2c0.4,0,0.9,0,1.4-0.1
		c0.8-0.2,0.9-1.1,0.9-3.7L528,60c0-0.6,0.1-1,0.4-1c0.3,0,0.6,0.4,1.1,0.9c0.4,0.4,4.9,5.3,9.3,9.6c2,2,6.1,6.4,6.6,6.8h0.2
		l-0.3-13.5c0-1.8-0.3-2.4-1-2.7c-0.5-0.2-1.2-0.2-1.6-0.2c-0.4,0-0.5-0.1-0.5-0.3c0-0.2,0.3-0.3,0.8-0.3c1.6,0,3,0.1,3.6,0.1
		c0.3,0,1.5-0.1,2.9-0.1c0.4,0,0.7,0,0.7,0.3c0,0.2-0.2,0.3-0.5,0.3c-0.3,0-0.5,0-0.9,0.1c-0.8,0.2-1.1,0.9-1.1,2.5l-0.3,18.9
		c0,0.7-0.1,0.9-0.4,0.9c-0.3,0-0.7-0.3-1-0.7c-1.9-1.8-5.7-5.7-8.8-8.8c-3.3-3.2-6.6-7-7.1-7.6h-0.1L530.1,78.1z"/>
	<path d="M555.2,81.8c-0.5-0.2-0.6-0.4-0.6-1c0-1.6,0.1-3.5,0.1-3.9c0-0.5,0.1-0.8,0.4-0.8c0.3,0,0.3,0.3,0.3,0.5
		c0,0.4,0.1,1,0.3,1.5c0.7,2.2,2.4,3,4.3,3c2.7,0,4-1.8,4-3.4c0-1.5-0.5-2.9-2.9-4.8l-1.4-1.1c-3.3-2.6-4.4-4.7-4.4-7.1
		c0-3.3,2.8-5.7,6.9-5.7c2,0,3.2,0.3,4,0.5c0.3,0.1,0.4,0.2,0.4,0.4c0,0.4-0.1,1.3-0.1,3.6c0,0.7-0.1,0.9-0.3,0.9
		c-0.2,0-0.3-0.2-0.3-0.5c0-0.3-0.1-1.2-0.8-2c-0.5-0.6-1.3-1.5-3.3-1.5c-2.2,0-3.6,1.3-3.6,3.1c0,1.4,0.7,2.4,3.2,4.3l0.8,0.6
		c3.6,2.8,4.9,4.8,4.9,7.7c0,1.7-0.7,3.8-2.8,5.2c-1.5,1-3.2,1.2-4.8,1.2C557.8,82.6,556.5,82.3,555.2,81.8z"/>
</g>
</svg>
