<?xml version="1.0" encoding="UTF-8" standalone="no"?>
<svg
   xmlns:dc="http://purl.org/dc/elements/1.1/"
   xmlns:cc="http://creativecommons.org/ns#"
   xmlns:rdf="http://www.w3.org/1999/02/22-rdf-syntax-ns#"
   xmlns:svg="http://www.w3.org/2000/svg"
   xmlns="http://www.w3.org/2000/svg"
   viewBox="0 0 718.33752 160"
   height="160"
   width="718.33752"
   xml:space="preserve"
   version="1.1"
   id="svg2"><metadata
     id="metadata8"><rdf:RDF><cc:Work
         rdf:about=""><dc:format>image/svg+xml</dc:format><dc:type
           rdf:resource="http://purl.org/dc/dcmitype/StillImage" /></cc:Work></rdf:RDF></metadata><defs
     id="defs6"><clipPath
       id="clipPath18"
       clipPathUnits="userSpaceOnUse"><path
         id="path20"
         d="M 0,1280 0,0 l 5746.67,0 0,1280 L 0,1280 Z" /></clipPath></defs><g
     transform="matrix(1.25,0,0,-1.25,0,160)"
     id="g10"><g
       transform="scale(0.1,0.1)"
       id="g12"><g
         id="g14"><g
           clip-path="url(#clipPath18)"
           id="g16"><path
             id="path22"
             style="fill:#199daa;fill-opacity:1;fill-rule:nonzero;stroke:none"
             d="M 437.785,1131.82 C 275.242,1088.99 147.219,960.738 104.578,798.145 43.418,564.926 152.992,348.836 335.184,247.582 c 13.168,-7.32 29.371,2.488 29.371,17.559 l 0,393.593 c 0,4.871 0.035,9.575 0.402,14 3.176,141.614 154.328,247.368 304.152,172.602 34.082,-17.008 61.668,-45.074 78.121,-79.426 72.395,-151.14 -35.847,-299.68 -178.785,-299.68 -15.902,0 -31.355,1.879 -46.175,5.395 -15.223,3.609 -29.899,-7.488 -29.899,-23.129 l 0,-229.676 c 0,-14.718 11.004,-27.23 25.629,-28.82 16.57,-1.809 33.391,-2.789 50.445,-2.789 265.602,0 480.915,215.312 480.915,480.914 0,308.09 -289.715,548.515 -611.575,463.695" /><path
             id="path24"
             style="fill:#3b3838;fill-opacity:1;fill-rule:nonzero;stroke:none"
             d="m 1745.67,664.496 c 0,130.348 -76.74,250.942 -215.61,250.942 -136.43,0 -214.39,-120.594 -214.39,-250.942 0,-131.547 77.96,-252.141 214.39,-252.141 138.87,0 215.61,120.594 215.61,252.141 z m -496.99,0 c 0,171.762 109.63,308.199 281.38,308.199 174.19,0 283.83,-136.437 283.83,-308.199 0,-171.742 -109.64,-309.398 -283.83,-309.398 -171.75,0 -281.38,137.656 -281.38,309.398" /><path
             id="path26"
             style="fill:#3b3838;fill-opacity:1;fill-rule:nonzero;stroke:none"
             d="m 2415.63,664.496 c 0,142.531 -74.3,250.942 -205.86,250.942 -81.61,0 -159.57,-48.731 -193.68,-104.754 l 0,-291.137 c 34.11,-56.027 112.07,-107.192 193.68,-107.192 131.56,0 205.86,109.629 205.86,252.141 z m -399.54,-199.758 0,-308.617 c 0,-5.82 -4.71,-10.531 -10.53,-10.531 l -42.29,0 c -5.81,0 -10.52,4.711 -10.52,10.531 l 0,791.426 c 0,5.812 4.71,10.523 10.52,10.523 l 42.29,0 c 5.82,0 10.53,-4.711 10.53,-10.523 l 0,-82.059 c 41.42,59.696 116.94,107.207 204.64,107.207 157.14,0 263.12,-119.375 263.12,-308.199 0,-187.586 -105.98,-309.398 -263.12,-309.398 -82.83,0 -157.14,42.632 -204.64,109.64" /><path
             id="path28"
             style="fill:#3b3838;fill-opacity:1;fill-rule:nonzero;stroke:none"
             d="m 2631.21,483.004 0,419.027 -87.53,0 c -5.48,0 -9.92,4.442 -9.92,9.922 l 0,35.594 c 0,5.812 4.71,10.523 10.53,10.523 l 86.92,0 0,150.27 c 0,5.81 4.71,10.53 10.53,10.53 l 43.5,0 c 5.81,0 10.52,-4.72 10.52,-10.53 l 0,-150.27 108.85,0 c 5.82,0 10.53,-4.711 10.53,-10.523 l 0,-34.988 c 0,-5.813 -4.71,-10.528 -10.53,-10.528 l -108.85,0 0,-409.277 c 0,-47.512 19.5,-80.399 60.92,-80.399 22.38,0 42.43,8.555 56.42,19.446 5.12,3.98 12.66,1.957 15.56,-3.84 l 14.61,-29.215 c 2.1,-4.199 1.22,-9.371 -2.35,-12.43 -22.06,-18.933 -49.32,-31.218 -93.99,-31.218 -77.96,0 -115.72,47.507 -115.72,127.906" /><path
             id="path30"
             style="fill:#3b3838;fill-opacity:1;fill-rule:nonzero;stroke:none"
             d="m 2929.63,380.246 0,567.301 c 0,5.812 4.71,10.523 10.53,10.523 l 42.29,0 c 5.82,0 10.53,-4.711 10.53,-10.523 l 0,-567.301 c 0,-5.812 -4.71,-10.527 -10.53,-10.527 l -42.29,0 c -5.82,0 -10.53,4.715 -10.53,10.527 z m -17.05,719.124 c 0,26.81 23.14,47.51 48.73,47.51 26.8,0 48.72,-20.7 48.72,-47.51 0,-26.8 -21.92,-48.71 -48.72,-48.71 -25.59,0 -48.73,21.91 -48.73,48.71" /><path
             id="path32"
             style="fill:#3b3838;fill-opacity:1;fill-rule:nonzero;stroke:none"
             d="m 3630.05,664.496 c 0,130.348 -76.74,250.942 -215.62,250.942 -136.42,0 -214.38,-120.594 -214.38,-250.942 0,-131.547 77.96,-252.141 214.38,-252.141 138.88,0 215.62,120.594 215.62,252.141 z m -497.01,0 c 0,171.762 109.63,308.199 281.39,308.199 174.2,0 283.83,-136.437 283.83,-308.199 0,-171.742 -109.63,-309.398 -283.83,-309.398 -171.76,0 -281.39,137.656 -281.39,309.398" /><path
             id="path34"
             style="fill:#3b3838;fill-opacity:1;fill-rule:nonzero;stroke:none"
             d="m 4267.12,664.496 c 0,114.504 -65.78,194.902 -166.88,194.902 -59.69,0 -121.81,-34.105 -151.04,-77.96 l 0,-232.661 c 28.01,-43.839 91.35,-80.398 151.04,-80.398 101.1,0 166.88,81.617 166.88,196.117 z m -317.92,-213.16 0,-295.215 c 0,-5.82 -4.72,-10.531 -10.53,-10.531 l -106.85,0 c -5.82,0 -10.53,4.711 -10.53,10.531 l 0,791.426 c 0,5.812 4.71,10.523 10.53,10.523 l 106.85,0 c 5.81,0 10.53,-4.711 10.53,-10.523 l 0,-69.871 c 43.84,58.461 112.06,95.019 188.8,95.019 152.27,0 260.68,-114.515 260.68,-308.199 0,-193.68 -108.41,-309.398 -260.68,-309.398 -74.3,0 -140.09,34.105 -188.8,96.238" /><path
             id="path36"
             style="fill:#3b3838;fill-opacity:1;fill-rule:nonzero;stroke:none"
             d="m 4862.77,503.719 0,90.133 c -30.47,40.195 -85.27,60.914 -140.09,60.914 -71.87,0 -126.69,-42.637 -126.69,-105.989 0,-64.554 54.82,-105.972 126.69,-105.972 54.82,0 109.62,20.715 140.09,60.914 z m 0,-123.473 0,54.027 c -43.85,-51.148 -113.28,-79.175 -191.24,-79.175 -95.02,0 -203.43,65.789 -203.43,194.898 0,136.438 107.19,192.461 203.43,192.461 80.38,0 147.39,-25.574 191.24,-75.523 l 0,87.711 c 0,68.21 -57.26,109.625 -137.66,109.625 -61.65,0 -116.9,-21.403 -164.71,-66.231 -4.93,-4.629 -12.8,-3.762 -16.29,2.031 l -42.34,70.231 c -2.58,4.289 -1.83,9.914 1.86,13.301 67.13,61.609 150.05,89.093 240.98,89.093 131.55,0 246.05,-54.82 246.05,-211.961 l 0,-380.488 c 0,-5.812 -4.71,-10.527 -10.53,-10.527 l -106.83,0 c -5.82,0 -10.53,4.715 -10.53,10.527" /><path
             id="path38"
             style="fill:#3b3838;fill-opacity:1;fill-rule:nonzero;stroke:none"
             d="m 5123.86,241.461 c 1.02,6.348 7.34,10.168 13.51,8.359 12.1,-3.55 26.34,-5.57 37.22,-5.57 41.42,0 68.21,12.191 85.27,51.168 l 29.24,66.988 -236.51,581.172 c -2.82,6.922 2.27,14.492 9.75,14.492 l 114.8,0 c 4.34,0 8.24,-2.66 9.81,-6.703 l 169.14,-434.258 169.15,434.258 c 1.57,4.043 5.47,6.703 9.81,6.703 l 113.54,0 c 7.49,0 12.58,-7.582 9.75,-14.507 L 5380.46,263.75 c -40.2,-99.898 -109.64,-131.559 -200.99,-132.781 -15.29,0 -43.36,2.551 -62.12,6.242 -5.54,1.09 -9.1,6.418 -8.21,11.988 l 14.72,92.262" /></g></g></g></g></svg>