<?xml version="1.0" encoding="utf-8"?>
<!-- Generator: Adobe Illustrator 21.1.0, SVG Export Plug-In . SVG Version: 6.00 Build 0)  -->
<svg version="1.1" id="Ebene_1" xmlns="http://www.w3.org/2000/svg" xmlns:xlink="http://www.w3.org/1999/xlink" x="0px" y="0px"
	 viewBox="0 0 74.9 20" style="enable-background:new 0 0 74.9 20;" xml:space="preserve">
<style type="text/css">
	.st0{fill:#20375E;}
</style>
<path class="st0" d="M17,19.1h11.3c0.4,0,0.7-0.3,0.7-0.7V1.7C29,1.3,28.7,1,28.3,1H17c-0.4,0-0.7,0.3-0.7,0.7v16.8
	C16.4,18.8,16.7,19.1,17,19.1z M19.7,3.7h4c0.4,0,0.7,0.3,0.7,0.7v2c0,0.3,0.1,0.6,0.3,0.8L26,8.3c0.2,0.2,0.3,0.5,0.3,0.8v6.5
	c0,0.4-0.3,0.7-0.7,0.7h-5.9c-0.4,0-0.7-0.3-0.7-0.7V4.4C19.1,4,19.4,3.7,19.7,3.7z"/>
<path class="st0" d="M32.4,3.7h3.2c0.4,0,0.7,0.3,0.7,0.7v14.1c0,0.4,0.3,0.7,0.7,0.7h3.2c0.4,0,0.7-0.3,0.7-0.7V9.2
	c0-0.3-0.1-0.6-0.3-0.8l-1.1-1.1C39.1,7,39,6.7,39,6.4v-2c0-0.4,0.3-0.7,0.7-0.7h4c0.4,0,0.7-0.3,0.7-0.7V1.7c0-0.4-0.3-0.7-0.7-0.7
	H32.4c-0.4,0-0.7,0.3-0.7,0.7V3C31.8,3.4,32.1,3.7,32.4,3.7z"/>
<path class="st0" d="M47.8,19.1h10.4c0.4,0,0.7-0.3,0.7-0.7V17c0-0.4-0.3-0.7-0.7-0.7h-5.9c-0.4,0-0.7-0.3-0.7-0.7v-4.1
	c0-0.4,0.3-0.7,0.7-0.7h4.1c0.4,0,0.7-0.3,0.7-0.7V8.9c0-0.4-0.3-0.7-0.7-0.7h-5.9c-0.4,0-0.7-0.3-0.7-0.7V4.4
	c0-0.4,0.3-0.7,0.7-0.7h7.7c0.4,0,0.7-0.3,0.7-0.7V1.7c0-0.4-0.3-0.7-0.7-0.7H47.8c-0.4,0-0.7,0.3-0.7,0.7v16.7
	C47.1,18.8,47.4,19.1,47.8,19.1z"/>
<path class="st0" d="M4.4,8.2C4,8.2,3.7,7.9,3.7,7.5V4.4C3.7,4,4,3.7,4.4,3.7h5C9.7,3.7,10,4,10,4.4v0.4c0,0.4,0.3,0.7,0.7,0.7H12
	c0.4,0,0.7-0.3,0.7-0.7V1.7C12.7,1.3,12.4,1,12,1H1.7C1.3,1,1,1.3,1,1.7v8.6C1,10.6,1.3,11,1.7,11h5.9c0.4,0,0.7,0.3,0.7,0.7v4
	c0,0.4-0.3,0.7-0.7,0.7H4.4c-0.4,0-0.7-0.3-0.7-0.7v-0.4c0-0.4-0.3-0.7-0.7-0.7H1.7c-0.4,0-0.7,0.3-0.7,0.7v3.2
	c0,0.4,0.3,0.7,0.7,0.7h10.4c0.4,0,0.7-0.3,0.7-0.7V8.9c0-0.4-0.3-0.7-0.7-0.7H4.4"/>
<path class="st0" d="M74.3,4.9V1.7C74.3,1.3,74,1,73.6,1H63.2c-0.4,0-0.7,0.3-0.7,0.7v16.8c0,0.4,0.3,0.7,0.7,0.7h10.4
	c0.4,0,0.7-0.3,0.7-0.7v-3.2c0-0.4-0.3-0.7-0.7-0.7h-1.3c-0.4,0-0.7,0.3-0.7,0.7v0.5c0,0.4-0.3,0.7-0.7,0.7h-3.2
	c-0.4,0-0.7-0.3-0.7-0.7V9.1c0-0.3-0.1-0.6-0.3-0.8l-1.1-1.1c-0.2-0.2-0.3-0.5-0.3-0.8v-2c0-0.4,0.3-0.7,0.7-0.7h5
	c0.4,0,0.7,0.3,0.7,0.7v0.4c0,0.4,0.3,0.7,0.7,0.7h1.3C74,5.5,74.3,5.2,74.3,4.9z"/>
</svg>
