<svg xmlns="http://www.w3.org/2000/svg" width="54" height="19" viewBox="0 0 54 19">
    <path fill="#333" fill-rule="evenodd" d="M26.789.001c5.09 0 7.886 2.259 7.886 7.203v9.994c0 .874-.705 1.588-1.58 1.588h-1.588V7.155c0-3.031-1.574-4.482-4.718-4.482-1.865 0-3.526.348-4.337.689v13.836c0 .874-.721 1.588-1.589 1.588h-1.556V1.457C20.863.649 23.791.001 26.789.001zM12.223 1.606c0-.88.722-1.606 1.613-1.606h1.549v17.343c-1.55.786-4.475 1.443-7.49 1.443C2.82 18.786 0 16.549 0 11.613V1.606C0 .726.73 0 1.597 0h1.597v11.646c0 3.022 1.556 4.482 4.7 4.482 1.873 0 3.543-.332 4.33-.69V1.607zm38.298 0c0-.88.713-1.606 1.613-1.606h1.556v17.343c-1.556.786-4.49 1.443-7.488 1.443-5.1 0-7.912-2.237-7.912-7.173V1.606c0-.88.722-1.606 1.596-1.606h1.597v11.646c0 3.022 1.565 4.482 4.719 4.482 1.847 0 3.525-.332 4.32-.69V1.607z"/>
</svg>
