<?xml version="1.0" encoding="utf-8"?>
<!-- Generator: Adobe Illustrator 21.1.0, SVG Export Plug-In . SVG Version: 6.00 Build 0)  -->
<svg version="1.1" id="Ebene_1" xmlns="http://www.w3.org/2000/svg" xmlns:xlink="http://www.w3.org/1999/xlink" x="0px" y="0px"
	 viewBox="0 0 283.5 283.5" style="enable-background:new 0 0 283.5 283.5;" xml:space="preserve">
<style type="text/css">
	.st0{fill:#333333;}
</style>
<g>
	<g>
		<path class="st0" d="M105.5,165.7v34.2c-2,0.8-6.1,1.7-10.7,1.7c-7.8,0-11.6-3.6-11.6-11.1v-28.8h-4c-2.2,0-3.9,1.8-3.9,3.9v24.7
			c0,12.2,7,17.8,19.5,17.8c7.4,0,14.7-1.6,18.5-3.6v-42.9h-3.9C107.3,161.7,105.5,163.5,105.5,165.7z M200.2,165.7v34.2
			c-2,0.9-6.1,1.7-10.7,1.7c-7.8,0-11.7-3.6-11.7-11.1v-28.8h-3.9c-2.2,0-4,1.8-4,3.9v24.7c0,12.2,7,17.8,19.5,17.8
			c7.4,0,14.7-1.6,18.5-3.6v-42.9h-3.9C202,161.7,200.2,163.5,200.2,165.7z M267.4,88.6c-6.9-16.2-16.7-30.8-29.2-43.3
			c-12.5-12.5-27.1-22.4-43.4-29.2C178,9,160.1,5.3,141.7,5.3c-18.4,0-36.3,3.6-53.1,10.7c-16.2,6.9-30.8,16.7-43.3,29.2
			C32.8,57.8,22.9,72.4,16.1,88.6C9,105.5,5.3,123.3,5.3,141.7c0,18.4,3.6,36.3,10.7,53.1c6.9,16.2,16.7,30.8,29.2,43.3
			c12.5,12.5,27.1,22.4,43.3,29.2c16.8,7.1,34.7,10.7,53.1,10.7c18.4,0,36.3-3.6,53.1-10.7c16.2-6.9,30.8-16.7,43.4-29.2
			c12.5-12.5,22.4-27.1,29.2-43.3c7.1-16.8,10.7-34.7,10.7-53.1C278.1,123.3,274.5,105.5,267.4,88.6z M260.5,191.9
			c-6.5,15.3-15.8,29.1-27.6,41c-11.8,11.8-25.6,21.1-41,27.6c-15.9,6.7-32.8,10.1-50.2,10.1c-17.4,0-34.3-3.4-50.2-10.1
			c-15.3-6.5-29.1-15.8-41-27.6c-11.8-11.8-21.1-25.6-27.6-41c-6.7-15.9-10.1-32.8-10.1-50.2c0-17.4,3.4-34.3,10.1-50.2
			c6.5-15.3,15.8-29.1,27.6-41c11.8-11.8,25.6-21.1,41-27.6c15.9-6.7,32.8-10.1,50.2-10.1c17.4,0,34.3,3.4,50.2,10.1
			c15.3,6.5,29.1,15.8,41,27.6c11.8,11.8,21.1,25.6,27.6,41c6.7,15.9,10.1,32.8,10.1,50.2C270.6,159.1,267.2,176,260.5,191.9z
			 M141.5,161.7c-7.4,0-14.7,1.6-18.5,3.6v38.9c0,2.2,1.8,4,4,4h3.9V170c2-0.8,6.1-1.7,10.7-1.7c7.8,0,11.6,3.6,11.6,11.1v24.8
			c0,2.2,1.8,4,4,4h3.9v-28.7C161,167.3,154.1,161.7,141.5,161.7z"/>
	</g>
</g>
</svg>
