<svg id="Layer_1" data-name="Layer 1" xmlns="http://www.w3.org/2000/svg" viewBox="0 0 274.72 279.78"><defs><style>.cls-1{fill:#42b7e9;}.cls-2{fill:#d1263d;}</style></defs><title>unnouncements</title><path class="cls-1" d="M11.11,68l0,0a2.36,2.36,0,0,0-2.66.1,2.22,2.22,0,0,0-.89,1.8v27h3.9V74.11l15,16.8v6H30.3V67.67H26.41V85.06L11.73,68.55A3.82,3.82,0,0,0,11.11,68Z"/><path class="cls-1" d="M45.72,69.32a7.64,7.64,0,0,0-2.58,5.94v14.1a7.62,7.62,0,0,0,2.58,5.93c1.67,1.5,4.53,2.23,8.73,2.23s7.07-.73,8.77-2.22a7.56,7.56,0,0,0,2.64-5.94V75.26a7.57,7.57,0,0,0-2.64-6c-1.7-1.49-4.57-2.21-8.77-2.21S47.39,67.83,45.72,69.32Zm8.73,24.3c-4.06,0-5.56-.77-6.1-1.23a3.73,3.73,0,0,1-1.32-3V75.26a3.75,3.75,0,0,1,1.32-3c.53-.46,2-1.23,6.1-1.23s5.61.78,6.17,1.25a3.66,3.66,0,0,1,1.35,3v14.1a3.69,3.69,0,0,1-1.35,3C60.06,92.84,58.53,93.62,54.45,93.62Z"/><path class="cls-1" d="M78.41,67.67v12a17.37,17.37,0,0,0,.19,2.71A11.08,11.08,0,0,0,79.3,85l3.16,7.65A11.31,11.31,0,0,0,84,95.34a4.27,4.27,0,0,0,3.54,1.56h4.2a4.27,4.27,0,0,0,3.54-1.56,11.33,11.33,0,0,0,1.53-2.71L100,85a11.45,11.45,0,0,0,.7-2.58,18.68,18.68,0,0,0,.19-2.71v-12H97v12a12.63,12.63,0,0,1-.16,2.08,9,9,0,0,1-.47,1.72l-3.17,7.68a8.11,8.11,0,0,1-.87,1.7c-.07.09-.34.12-.55.12h-4.2c-.22,0-.49,0-.55-.12a8,8,0,0,1-.89-1.74l-3.15-7.63a9.27,9.27,0,0,1-.47-1.73,12.6,12.6,0,0,1-.17-2.08v-12Z"/><polygon class="cls-1" points="133.34 93 117.72 93 117.72 84.04 129.47 84.04 129.47 80.15 117.72 80.15 117.72 71.56 133.34 71.56 133.34 67.67 113.83 67.67 113.83 96.89 133.34 96.89 133.34 93"/><path class="cls-1" d="M168.87,67.67h-.81a3.43,3.43,0,0,0-1.47.33,3.24,3.24,0,0,0-1.35,1.25l-5.83,8.9c-.68,1-.93,1.31-1,1.35a8.5,8.5,0,0,1-1-1.36l-5.79-8.83A3.24,3.24,0,0,0,150.15,68a3.71,3.71,0,0,0-1.45-.31h-.81a2.84,2.84,0,0,0-2.22.94,3.36,3.36,0,0,0-.73,2.25v26h3.89l0-24.7,5.35,8.06a16.12,16.12,0,0,0,1.5,2,4.24,4.24,0,0,0,5.48,0,15.93,15.93,0,0,0,1.51-2l5.33-8V96.9h3.89v-26a3.33,3.33,0,0,0-.73-2.24A2.88,2.88,0,0,0,168.87,67.67Z"/><path class="cls-1" d="M206.74,82.26a5.74,5.74,0,0,0-2.24-1.48,8.41,8.41,0,0,0,.63-3.28v-3a9.34,9.34,0,0,0-.3-2.4,5.22,5.22,0,0,0-1.33-2.35,6.29,6.29,0,0,0-2.61-1.54,12,12,0,0,0-3.73-.49H185.75V96.9h14.57a13.38,13.38,0,0,0,3.72-.43,6.19,6.19,0,0,0,2.6-1.39A5,5,0,0,0,208,92.79a9,9,0,0,0,.3-2.38V87.35a12.2,12.2,0,0,0-.26-2.56A5.37,5.37,0,0,0,206.74,82.26Zm-5.5-4.76a6.1,6.1,0,0,1-.13,1.3,1,1,0,0,1-.3.53,2.5,2.5,0,0,1-1.05.53,8.86,8.86,0,0,1-2.6.29h-7.51V71.56h7.51c2.65,0,3.27.6,3.37.72a3.26,3.26,0,0,1,.71,2.17ZM189.65,84h10.71c2,0,3,.39,3.3.75a4.14,4.14,0,0,1,.73,2.56v3.06a2.78,2.78,0,0,1-.63,2c-.06.06-.68.63-3.44.63H189.65Z"/><polygon class="cls-1" points="220.31 96.89 239.83 96.89 239.83 93 224.2 93 224.2 84.04 235.96 84.04 235.96 80.15 224.2 80.15 224.2 71.56 239.83 71.56 239.83 67.67 220.31 67.67 220.31 96.89"/><path class="cls-1" d="M272.73,83.73h0a6.06,6.06,0,0,0-2.19-1.26l0-.08a11.25,11.25,0,0,0,.7-4.25v-3.3a7.42,7.42,0,0,0-1.76-5,6.73,6.73,0,0,0-5.4-2.15h-12.6V96.9h3.89V85.81h11.82a4.4,4.4,0,0,1,2.86.72,2.92,2.92,0,0,1,.73,2.25V96.9h3.9V88.78A6.54,6.54,0,0,0,272.73,83.73Zm-8.61-12.17a3.16,3.16,0,0,1,2.47.81,3.58,3.58,0,0,1,.79,2.46v3.34a5.5,5.5,0,0,1-.69,3.09c-.31.45-1.25.7-2.57.7h-8.71V71.56Z"/><path class="cls-1" d="M26.43,160.1H10.18v-5.27a2.81,2.81,0,0,1,.18-1.29,2.45,2.45,0,0,1,1-.58l11.28-3.73a4.63,4.63,0,0,0,1.91-1.51,4.53,4.53,0,0,0,.79-2.73v-4.35c0-2.2-.71-3.78-2.11-4.7a8.32,8.32,0,0,0-4.71-1.17H7.24v3.89H18.56a5.23,5.23,0,0,1,2.52.5c.37.22.41,1.11.41,1.48V145a.71.71,0,0,1-.22.62l-11.12,3.68a5.39,5.39,0,0,0-2.94,2,6.2,6.2,0,0,0-.87,3.57V164H26.43Z"/><path class="cls-1" d="M57.48,162.38A7.66,7.66,0,0,0,60,156.46v-14.1a7.71,7.71,0,0,0-2.54-5.9c-1.67-1.52-4.5-2.26-8.68-2.26a20.12,20.12,0,0,0-5,.53,9.41,9.41,0,0,0-3.53,1.63,6.33,6.33,0,0,0-2,2.79,9.52,9.52,0,0,0-.53,3.21v14.1a9.42,9.42,0,0,0,.53,3.2,6.13,6.13,0,0,0,2,2.79,9.26,9.26,0,0,0,3.53,1.63,20.12,20.12,0,0,0,5,.53C53,164.61,55.82,163.88,57.48,162.38Zm-8.67-1.66c-3.91,0-5.39-.76-5.92-1.21a3.73,3.73,0,0,1-1.31-3v-14.1a3.73,3.73,0,0,1,1.31-3.05c.54-.46,2-1.22,5.92-1.22,3.71,0,5.3.68,6,1.25a3.64,3.64,0,0,1,1.36,3v14.1a3.64,3.64,0,0,1-1.35,3C54.12,160.05,52.53,160.72,48.81,160.72Z"/><polygon class="cls-1" points="90.47 160.34 83.11 160.34 83.11 134.77 72.05 134.77 72.05 138.66 79.22 138.66 79.22 160.34 71.09 160.34 71.09 164.23 90.47 164.23 90.47 160.34"/><path class="cls-1" d="M122.72,161.07a6.53,6.53,0,0,0,.59-2.75v-4.45a6,6,0,0,0-1.78-4.32,5.89,5.89,0,0,0-1.29-1,5.42,5.42,0,0,0,1.35-3.74V140.3a5.74,5.74,0,0,0-2.69-5.12c-1.55-1-3.83-1.46-7-1.46s-5.39.46-6.94,1.39a5.36,5.36,0,0,0-2.74,4.81v4.92a5.35,5.35,0,0,0,1.37,3.75,6.25,6.25,0,0,0-1.29,1,6,6,0,0,0-1.8,4.35v4.4a6.52,6.52,0,0,0,.58,2.75,5.44,5.44,0,0,0,2.19,2.34,11.1,11.1,0,0,0,3.54,1.27,31.86,31.86,0,0,0,10.19,0,10.71,10.71,0,0,0,3.53-1.28A5.49,5.49,0,0,0,122.72,161.07ZM107.11,138.4a10.8,10.8,0,0,1,4.83-.79,10.12,10.12,0,0,1,4.77.82,1.84,1.84,0,0,1,1,1.87v4.54a1.39,1.39,0,0,1-.89,1.44,11.48,11.48,0,0,1-4.86.73,11.5,11.5,0,0,1-4.89-.74h0a1.38,1.38,0,0,1-.9-1.43v-4.92A1.53,1.53,0,0,1,107.11,138.4Zm-2.68,15.52a2.22,2.22,0,0,1,1.28-2c.74-.48,2.43-1.06,6.23-1.06s5.49.56,6.22,1a2.18,2.18,0,0,1,1.25,1.93v4.45a2.1,2.1,0,0,1-1.21,1.88h0c-.72.46-2.4,1-6.26,1s-5.55-.55-6.29-1a2.08,2.08,0,0,1-1.22-1.87Z"/><path class="cls-1" d="M31.51,201.87H30.7a3.38,3.38,0,0,0-1.46.33,3.18,3.18,0,0,0-1.35,1.25l-5.84,8.9c-.68,1-.93,1.31-1,1.35a10.15,10.15,0,0,1-1-1.36l-5.8-8.83a3.19,3.19,0,0,0-1.45-1.33,3.71,3.71,0,0,0-1.45-.31h-.81a2.84,2.84,0,0,0-2.22.94,3.36,3.36,0,0,0-.73,2.25v26h3.89V206.4l5.34,8.06a17.22,17.22,0,0,0,1.5,2,4.26,4.26,0,0,0,5.49,0,18.57,18.57,0,0,0,1.5-2l5.33-8V231.1h3.89v-26a3.33,3.33,0,0,0-.73-2.24A2.86,2.86,0,0,0,31.51,201.87Z"/><path class="cls-1" d="M66.8,223.51a3.73,3.73,0,0,1-1.32,3c-.54.46-2,1.24-6.11,1.24s-5.54-.77-6.06-1.23a3.76,3.76,0,0,1-1.31-3V201.87H48.11v21.64a7.66,7.66,0,0,0,2.55,5.93c1.66,1.5,4.51,2.23,8.71,2.23s7.06-.73,8.74-2.23a7.61,7.61,0,0,0,2.58-5.93V201.87H66.8Z"/><path class="cls-1" d="M102.64,219.26,88,202.75a3.87,3.87,0,0,0-.65-.55,2.34,2.34,0,0,0-2.66.1,2.19,2.19,0,0,0-.89,1.8v27h3.9V208.31l15,16.8v6h3.89V201.87h-3.89Z"/><polygon class="cls-1" points="118.27 205.76 125.68 205.76 125.68 227.2 118.27 227.2 118.27 231.09 136.88 231.09 136.88 227.2 129.57 227.2 129.57 205.76 136.88 205.76 136.88 201.87 118.27 201.87 118.27 205.76"/><path class="cls-1" d="M150.35,203.77c-1.37,1.28-2.06,3.33-2.06,6.07v13.38c0,2.68.68,4.68,2,6s3.69,1.91,7.32,1.91h9.69v-3.9h-9.69c-3.29,0-4.31-.59-4.6-.85a4.32,4.32,0,0,1-.86-3.13V209.84c0-1.09.15-2.53.9-3.19.3-.27,1.35-.89,4.56-.89h9.69v-3.89h-9.69C154.05,201.87,151.73,202.47,150.35,203.77Z"/><polygon class="cls-1" points="197.65 214.54 182.72 214.54 182.72 201.87 178.82 201.87 178.82 231.09 182.72 231.09 182.72 218.43 197.65 218.43 197.65 231.09 201.54 231.09 201.54 201.87 197.65 201.87 197.65 214.54"/><polygon class="cls-1" points="25.19 26.14 17.83 26.14 17.83 0.57 6.77 0.57 6.77 4.46 13.94 4.46 13.94 26.14 5.81 26.14 5.81 30.03 25.19 30.03 25.19 26.14"/><path class="cls-1" d="M42,29.88a20,20,0,0,0,5,.54c4.17,0,7-.73,8.67-2.24a7.64,7.64,0,0,0,2.55-5.92V8.16a7.71,7.71,0,0,0-2.54-5.9C54,.74,51.17,0,47,0a20,20,0,0,0-5,.53,9.49,9.49,0,0,0-3.53,1.63,6.18,6.18,0,0,0-2,2.79,9.28,9.28,0,0,0-.53,3.21v14.1a9.18,9.18,0,0,0,.53,3.2,6.13,6.13,0,0,0,2,2.79A9.19,9.19,0,0,0,42,29.88Zm5-3.35c-3.91,0-5.39-.77-5.92-1.22a3.7,3.7,0,0,1-1.31-3V8.16a3.7,3.7,0,0,1,1.31-3c.53-.46,2-1.22,5.92-1.22,3.71,0,5.3.68,6,1.25a3.66,3.66,0,0,1,1.35,3v14.1a3.64,3.64,0,0,1-1.34,3C52.3,25.86,50.72,26.53,47,26.53Z"/><rect class="cls-1" x="68.9" y="13.24" width="11.06" height="3.89"/><polygon class="cls-1" points="107.78 26.14 100.42 26.14 100.42 0.57 89.36 0.57 89.36 4.46 96.53 4.46 96.53 26.14 88.4 26.14 88.4 30.03 107.78 30.03 107.78 26.14"/><polygon class="cls-1" points="136.5 26.14 129.14 26.14 129.14 0.57 118.08 0.57 118.08 4.46 125.25 4.46 125.25 26.14 117.12 26.14 117.12 30.03 136.5 30.03 136.5 26.14"/><polygon class="cls-2" points="20.51 258.52 29.78 269.4 20.51 279.78 28.66 279.78 38.3 269.4 28.66 258.52 20.51 258.52"/><polygon class="cls-2" points="0 258.52 9.27 269.4 0 279.78 8.15 279.78 17.79 269.4 8.15 258.52 0 258.52"/></svg>