<?xml version="1.0" encoding="utf-8"?>
<!-- Generator: Adobe Illustrator 22.0.1, SVG Export Plug-In . SVG Version: 6.00 Build 0)  -->
<svg version="1.1" id="Layer_4" xmlns="http://www.w3.org/2000/svg" xmlns:xlink="http://www.w3.org/1999/xlink"
	 viewBox="0 0 691.4 448"  >
<style type="text/css">
	.st0{fill:none;}
	.st1{fill:#FFC107;}
	.st2{fill:#0F9D58;}
	.st3{opacity:0.2;fill:#BF360C;enable-background:new    ;}
	.st4{opacity:0.2;fill:#263238;enable-background:new    ;}
	.st5{opacity:0.2;fill:#FFFFFF;enable-background:new    ;}
	.st6{fill:url(#XMLID_2_);}
	.st7{fill:url(#XMLID_3_);}
	.st8{fill:#4285F4;}
	.st9{fill:#DB4437;}
	.st10{opacity:0.2;fill:#1A237E;enable-background:new    ;}
	.st11{opacity:0.2;fill:#3E2723;enable-background:new    ;}
	.st12{fill:url(#XMLID_4_);}
	.st13{fill:#686868;}
</style>
<g>
	<g>
		<defs>
			<rect id="SVGID_1_" />
		</defs>
		<clipPath id="SVGID_2_">
			<use xlink:href="#SVGID_1_"  style="overflow:visible;"/>
		</clipPath>
	</g>
</g>
<g id="XMLID_50_">
	<g id="XMLID_72_">
		<path class="st0" d="M175.6,218.5l-33.5-58H97.2l37,64l-37,64h44.9l33.5-58C177.8,226.8,177.8,222.2,175.6,218.5z"/>
		<polygon id="XMLID_80_" class="st1" points="156.4,262.8 145.8,244.4 120.2,288.5 142.1,288.5 156.7,263.3 		"/>
		<path class="st0" d="M175.6,218.5l-33.5-58H97.2l37,64l-37,64h44.9l33.5-58C177.8,226.8,177.8,222.2,175.6,218.5z"/>
		<polygon class="st2" points="134.3,224.5 145.8,244.4 120.2,288.5 97.2,288.5 		"/>
		<path class="st0" d="M175.6,218.5l-33.5-58H97.2l37,64l-37,64h44.9l33.5-58C177.8,226.8,177.8,222.2,175.6,218.5z"/>
		<polygon class="st3" points="142.1,287.5 120.8,287.5 120.2,288.5 142.1,288.5 156.7,263.3 156.4,262.8 		"/>
		<path class="st0" d="M175.6,218.5l-33.5-58H97.2l37,64l-37,64h44.9l33.5-58C177.8,226.8,177.8,222.2,175.6,218.5z"/>
		<polygon class="st4" points="97.8,287.5 97.2,288.5 120.2,288.5 120.8,287.5 		"/>
		<path class="st0" d="M175.6,218.5l-33.5-58H97.2l37,64l-37,64h44.9l33.5-58C177.8,226.8,177.8,222.2,175.6,218.5z"/>
		<polygon class="st5" points="97.2,288.5 97.8,288.5 134.6,225 134.3,224.5 		"/>
		<path class="st0" d="M175.6,218.5l-33.5-58H97.2l37,64l-37,64h44.9l33.5-58C177.8,226.8,177.8,222.2,175.6,218.5z"/>
		
			<radialGradient id="XMLID_2_" cx="156.5167" cy="187.126" r="44.2635" gradientTransform="matrix(1 0 0 -1 0 450)" gradientUnits="userSpaceOnUse">
			<stop  offset="0" style="stop-color:#BF360C;stop-opacity:0.2"/>
			<stop  offset="1" style="stop-color:#BF360C;stop-opacity:2.000000e-02"/>
		</radialGradient>
		<polygon id="XMLID_79_" class="st6" points="156.7,263.3 156.7,263.3 145.8,244.4 143.1,249 		"/>
		<path class="st0" d="M175.6,218.5l-33.5-58H97.2l37,64l-37,64h44.9l33.5-58C177.8,226.8,177.8,222.2,175.6,218.5z"/>
		
			<radialGradient id="XMLID_3_" cx="156.391" cy="186.8461" r="44.6228" gradientTransform="matrix(1 0 0 -1 0 450)" gradientUnits="userSpaceOnUse">
			<stop  offset="0" style="stop-color:#263238;stop-opacity:0.2"/>
			<stop  offset="1" style="stop-color:#263238;stop-opacity:2.000000e-02"/>
		</radialGradient>
		<polygon id="XMLID_78_" class="st7" points="143.1,249 145.8,244.4 134.3,224.5 128.8,234 		"/>
		<path class="st0" d="M175.6,218.5l-33.5-58H97.2l37,64l-37,64h44.9l33.5-58C177.8,226.8,177.8,222.2,175.6,218.5z"/>
		<g id="XMLID_75_">
			<g id="XMLID_76_">
				<polygon id="XMLID_77_" class="st8" points="120.2,160.5 97.2,160.5 156.7,263.3 168.2,243.4 168.2,243.4 				"/>
			</g>
		</g>
		<path class="st0" d="M175.6,218.5l-33.5-58H97.2l37,64l-37,64h44.9l33.5-58C177.8,226.8,177.8,222.2,175.6,218.5z"/>
		<path class="st9" d="M175.6,230.5c2.1-3.7,2.1-8.3,0-12l-33.5-58h-21.9l47.9,82.9L175.6,230.5z"/>
		<path class="st0" d="M175.6,218.5l-33.5-58H97.2l37,64l-37,64h44.9l33.5-58C177.8,226.8,177.8,222.2,175.6,218.5z"/>
		<polygon class="st10" points="168.2,243.4 167.9,242.9 156.7,262.3 97.8,160.5 97.2,160.5 156.7,263.3 168.2,243.4 		"/>
		<path class="st0" d="M175.6,218.5l-33.5-58H97.2l37,64l-37,64h44.9l33.5-58C177.8,226.8,177.8,222.2,175.6,218.5z"/>
		<path class="st5" d="M142.1,161.5l33.5,58c1,1.7,1.5,3.6,1.6,5.5c0.1-2.2-0.4-4.5-1.6-6.5l-33.5-58H97.2l0.6,1H142.1z"/>
		<path class="st0" d="M175.6,218.5l-33.5-58H97.2l37,64l-37,64h44.9l33.5-58C177.8,226.8,177.8,222.2,175.6,218.5z"/>
		<path id="XMLID_74_" class="st11" d="M168.2,243.4l7.4-12.9c1.2-2,1.7-4.3,1.6-6.5c-0.1,1.9-0.6,3.8-1.6,5.5l-7.7,13.4
			L168.2,243.4z"/>
		<path class="st0" d="M175.6,218.5l-33.5-58H97.2l37,64l-37,64h44.9l33.5-58C177.8,226.8,177.8,222.2,175.6,218.5z"/>
		
			<radialGradient id="XMLID_4_" cx="96.2289" cy="288.5" r="134.3503" gradientTransform="matrix(1 0 0 -1 0 450)" gradientUnits="userSpaceOnUse">
			<stop  offset="0" style="stop-color:#FFFFFF;stop-opacity:0.1"/>
			<stop  offset="1" style="stop-color:#FFFFFF;stop-opacity:0"/>
		</radialGradient>
		<path id="XMLID_73_" class="st12" d="M175.6,218.5l-33.5-58H97.2l37,64l-37,64h44.8l33.5-58C177.8,226.8,177.8,222.2,175.6,218.5z
			"/>
	</g>
</g>
<g>
	<path class="st13" d="M222.6,256.5v-68.3h20.9c10.5,0,18.9,3.2,25.2,9.5c6.3,6.3,9.4,14.5,9.4,24.7c0,10.1-3.1,18.3-9.4,24.7
		c-6.3,6.3-14.7,9.5-25.2,9.5H222.6z M231.3,248.1h12.1c7.9,0,14.1-2.3,18.7-6.8c4.6-4.5,6.9-10.8,6.9-19c0-8.1-2.3-14.4-6.9-18.9
		c-4.6-4.5-10.9-6.8-18.7-6.8h-12.1V248.1z"/>
	<path class="st13" d="M279.9,256.5l25.8-68.3h9.9l25.8,68.3h-9.7L325,238h-28.7l-6.7,18.5H279.9z M299.3,229.8h22.7L310.8,199h-0.4
		L299.3,229.8z"/>
	<path class="st13" d="M379.6,258c-10,0-18.5-3.4-25.3-10.2c-6.8-6.8-10.2-15.3-10.2-25.5c0-10.2,3.4-18.7,10.2-25.5
		c6.8-6.8,15.2-10.2,25.3-10.2c10.3,0,18.7,3.7,25.1,11.2l-6.1,5.9c-4.6-5.8-11-8.7-19-8.7c-7.4,0-13.7,2.5-18.8,7.5
		c-5.1,5-7.7,11.6-7.7,19.7c0,8.1,2.6,14.7,7.7,19.7c5.1,5,11.4,7.5,18.8,7.5c8.2,0,15.2-3.3,21-9.9l6.1,6.1
		c-3.1,3.8-7,6.7-11.7,8.9C390.2,256.9,385.1,258,379.6,258z"/>
	<path class="st13" d="M416.9,256.5v-68.3h8.8v29.3h34.1v-29.3h8.8v68.3h-8.8v-30.8h-34.1v30.8H416.9z"/>
	<path class="st13" d="M491.1,256.5h-8.8v-68.3h39.9v8.4h-31.1V219h28v8.2h-28V256.5z"/>
	<path class="st13" d="M548.9,258c-7.1,0-12.8-2.4-17.2-7.1c-4.4-4.7-6.6-10.6-6.6-17.8c0-6.8,2.1-12.7,6.4-17.5
		c4.3-4.9,9.8-7.3,16.5-7.3c6.9,0,12.5,2.3,16.6,6.8c4.2,4.5,6.2,10.6,6.2,18.1l-0.1,1.6h-36.9c0.3,4.7,1.8,8.4,4.7,11.2
		c2.9,2.7,6.3,4.1,10.2,4.1c6.3,0,10.6-2.7,12.8-8l7.8,3.2c-1.5,3.6-4,6.7-7.5,9.1C558.3,256.8,554,258,548.9,258z M561.5,227.5
		c-0.2-2.7-1.4-5.2-3.7-7.6c-2.3-2.4-5.6-3.6-10.1-3.6c-3.2,0-6.1,1-8.4,3.1c-2.4,2-4,4.8-4.9,8.2H561.5z"/>
	<path class="st13" d="M596.7,258c-5.2,0-9.5-1.3-12.9-3.8c-3.4-2.5-5.9-5.7-7.5-9.5l7.8-3.2c2.5,5.9,6.7,8.8,12.7,8.8
		c2.7,0,5-0.6,6.7-1.8c1.7-1.2,2.6-2.8,2.6-4.8c0-3.1-2.1-5.1-6.4-6.2l-9.4-2.3c-3-0.8-5.8-2.2-8.5-4.3c-2.7-2.1-4-5-4-8.6
		c0-4.1,1.8-7.5,5.5-10.1c3.7-2.6,8-3.9,13-3.9c4.1,0,7.8,0.9,11.1,2.8c3.2,1.9,5.6,4.6,7,8.1l-7.6,3.1c-1.7-4.1-5.3-6.2-10.7-6.2
		c-2.6,0-4.8,0.5-6.6,1.6c-1.8,1.1-2.7,2.5-2.7,4.4c0,2.7,2.1,4.5,6.2,5.4l9.3,2.2c4.4,1,7.6,2.8,9.7,5.2c2.1,2.5,3.1,5.3,3.1,8.4
		c0,4.2-1.7,7.7-5.2,10.5C606.5,256.6,602.1,258,596.7,258z"/>
	<path class="st13" d="M642.5,257.3c-4.9,0-8.6-1.3-11.2-3.9c-2.6-2.6-3.9-6.3-3.9-11.1v-24.5h-8.2v-8h8.2v-14.3h8.8v14.3h11.4v8
		h-11.4v23.8c0,5.1,2.1,7.6,6.3,7.6c1.6,0,2.9-0.3,4-0.8l3.1,7.5C647.7,256.8,645.3,257.3,642.5,257.3z"/>
</g>
</svg>
