<svg id="Layer_1" data-name="Layer 1" xmlns="http://www.w3.org/2000/svg" viewBox="0 0 1483.43 325.64"><defs><style>.cls-1{fill:#fff;}</style></defs><title>unnouncements</title><polygon class="cls-1" points="552.19 76.75 557.55 81.78 553.68 71.52 526.09 71.52 524.2 76.55 551.97 76.55 552.19 76.75"/><path class="cls-1" d="M1157.77,248.09H1163V247h-6.39C1157,247.38,1157.39,247.72,1157.77,248.09Z"/><polygon class="cls-1" points="1174.66 249.18 1169.21 249.18 1169.93 250.27 1175.38 250.27 1174.66 249.18"/><path class="cls-1" d="M744.25,168.75l-22.71-13.11V161l-9.28-5.36v26.22l9.28-5.36v5.36ZM723,158.25l18.2,10.5L723,179.26v-3.62L735,168.75,723,161.87Zm0,15.65V163.6l8.92,5.15Zm-9.28,5.36v-21l7.78,4.48v12Z"/><path class="cls-1" d="M635.1,153c-.26,2.24-.44,4.53-.57,6.84h11.12l.17.52,23.74,72.54H695.8a73.58,73.58,0,0,1-15.27-11.51q-21.35-21-21.34-54.93a95.74,95.74,0,0,1,1-13.46Z"/><path class="cls-1" d="M1474.94,239.18a26,26,0,0,1-11.14,2.12q-17.5,0-17.51-21.22V153.76h31.84V147.3h-10.6v-1h10.6V145h-24.56l-1.93-1.5h26.49V143h-55.88l-2-1.5h52.1v-1.93h2.9v1.93h1.93v-1.93h1v-8.12h-31.84V96.72h-17.14l-2-1.51h19.13V91.68h-24.4v39.79h-22.81v22.29h22.81v7.39l8.3,12.78-1.27.82-7-10.83v6.65l8.29,12.57-1.25.83-7-10.67v6.85l8.3,12.77-1.27.82-7-10.82v6.65l8.29,12.57-1.25.83-7-10.67v6.85l8.3,12.77-1.27.82-7-10.83v6.66l8.29,12.57-1.25.83-7-10.67v6.85l8.3,12.78-1.27.82-7-10.83v1c0,2.12.13,4.13.31,6.1l8,12.1-1.25.83-6.37-9.65q2,13.23,10.07,21.39,10.74,10.87,31.17,10.88,11.67,0,19.63-3.46Z"/><polygon class="cls-1" points="835.68 227.57 835.68 264.12 860.09 264.12 860.09 244.44 842.11 227.57 835.68 227.57"/><polygon class="cls-1" points="846.24 87.3 847.33 86.57 847.33 81.12 846.24 81.85 846.24 87.3"/><path class="cls-1" d="M843,194.69a4.95,4.95,0,1,0,4.94-4.94A5,5,0,0,0,843,194.69Z"/><polygon class="cls-1" points="1017.25 300.11 1030.32 309.23 1030.32 304.67 1017.25 295.55 1017.25 300.11"/><polygon class="cls-1" points="1017.25 269.16 1030.32 278.28 1030.32 273.72 1017.25 264.6 1017.25 269.16"/><rect class="cls-1" x="988.34" y="163.32" width="5.43" height="5.43"/><rect class="cls-1" x="988.53" y="147.27" width="5.43" height="5.43"/><rect class="cls-1" x="1453.52" y="163.32" width="5.43" height="5.43"/><rect class="cls-1" x="1469.46" y="163.32" width="5.43" height="5.43"/><polygon class="cls-1" points="306.98 49.18 293.91 40.06 293.91 44.62 306.98 53.74 306.98 49.18"/><polygon class="cls-1" points="306.98 18.23 293.91 9.11 293.91 13.67 306.98 22.8 306.98 18.23"/><rect class="cls-1" x="298.93" y="251.13" width="0.49" height="10.33"/><rect class="cls-1" x="295.03" y="248.44" width="0.02" height="13.03"/><polygon class="cls-1" points="296.14 242.26 297.23 241.54 297.23 236.09 296.14 236.81 296.14 242.26"/><path class="cls-1" d="M302.2,250.45v1.77l-1.09,1.4v7.84h52a123.49,123.49,0,0,0,22.35-2l-9.62-9Zm1.57,8.89h-1.09V255h1.09Z"/><rect class="cls-1" x="360.3" y="164.15" width="5.43" height="5.43"/><rect class="cls-1" x="328.42" y="164.15" width="5.43" height="5.43"/><rect class="cls-1" x="344.36" y="164.15" width="5.43" height="5.43"/><rect class="cls-1" x="280.6" y="164.15" width="5.43" height="5.43"/><rect class="cls-1" x="328.61" y="148.1" width="5.43" height="5.43"/><polygon class="cls-1" points="478.27 198.33 457.09 254.49 451.92 254.49 452.33 255.23 456.81 255.23 456.51 256.04 445.74 256.04 446.16 256.78 456.23 256.78 454.46 261.46 481.52 261.46 500.09 210 531.82 210 525.11 198.33 478.27 198.33"/><path class="cls-1" d="M431.81,201.91h12c.12-.36.23-.73.35-1.09H431.81Z"/><path class="cls-1" d="M434.5,197h10.89c.05-.17.12-.32.16-.49H434.5Z"/><polygon class="cls-1" points="420.18 199.73 425.63 199.73 424.91 198.64 419.46 198.64 420.18 199.73"/><path class="cls-1" d="M417.64,203H417a58.87,58.87,0,0,1-11.73,16.28Q386,238.12,353.12,238.12H319.44V94.87h13.75L327,89.06H295v13.69l12,8.34v4.56l-12-8.35v26.4L307,142v4.57l-12-8.34v96h0V231l2.18-2.91V213.56h1.09v-8.72l2.79-5.45v6.23l1.09,1.4v19.62h2.66v5.45H302.2v1.09h2.66v12H302.2V249h64.24l.22.2,10.6,9.94c18.19-3.65,33.53-11.59,45.9-24A86.47,86.47,0,0,0,443.42,203H417.64Zm-115.8-33.37h-5.42V164.2h5.42Zm.19-16H296.6v-5.43H302Zm15.75,16h-5.43V164.2h5.43Zm.19-16h-5.43v-5.43H318Z"/><path class="cls-1" d="M770.58,264.4l-.42-.74h-17.8c-1.54.31-3.11.51-4.68.74Z"/><path class="cls-1" d="M731.69,242.36a74.43,74.43,0,0,1-34.47-7.93h-30l-.18-.52-23.74-72.55H633.22c-.07,1.71-.22,3.38-.22,5.13q0,42.45,28.39,70.83a94.16,94.16,0,0,0,36.21,22.82h32.12l1.46,2.57h-24.8a104.17,104.17,0,0,0,41.3,1.69H721.8l-.42-.74h31a96.67,96.67,0,0,0,22-7.1A92.58,92.58,0,0,0,807,231.75l-17-17Q765.92,242.37,731.69,242.36Z"/><path class="cls-1" d="M705.86,267.79h25.88c1.56-.23,3.14-.43,4.68-.73h-31Z"/><path class="cls-1" d="M697.86,107V105H687.07c-.91.68-1.83,1.33-2.71,2.06Z"/><path class="cls-1" d="M652.25,103c.88-.73,1.8-1.38,2.71-2.06h-7.32l1.17,2.06Z"/><rect class="cls-1" x="706.11" y="104.98" width="1.65" height="2.06"/><rect class="cls-1" x="697.86" y="103.01" width="8.25" height="1.98"/><path class="cls-1" d="M635.1,121.3l-.42-.74h8.65a96.93,96.93,0,0,0-9.27,31h25.07a73,73,0,0,1,8.58-25h11l.75,1.32h8.65v-1.65H667.9q1.7-2.92,3.67-5.68h4.25L674.36,118H682l-1.36-2.39h-5.15c1.21-1.38,2.47-2.73,3.8-4,1.64-1.62,3.34-3.11,5.07-4.54h-3.44L679.75,105h7.32c12.68-9.52,27.53-14.36,44.62-14.36q33.42,0,52.79,24.14l17-16.45q-16.12-18.66-38.09-26.1h10.19l-2.41-1.28H759.27q-1.95-.56-4-1h10.54l-3.3-2.57H735.39c-1.23,0-2.46-.06-3.7-.06q-41.93,0-70.3,28.38a98,98,0,0,0-10,11.66H607.69v.32h35.17l.75,1.33h6.62c-1.51,2.16-2.92,4.38-4.23,6.64h-1.28v-1.32h-3.3v1.32h-6.6v-1.32h-3.71l2.11,3.71h-7.64l1.46,2.56h2v.74Z"/><path class="cls-1" d="M295,71.52v.27l12,8.34v4.56l-12-8.33V87.29H327.7l.25.24,7.82,7.34h17.35q32.91,0,52.14,19t19.23,52.66A92.71,92.71,0,0,1,421.42,191h7.12v2.67h7l1.4,1.09h9c.14-.52.23-1.06.35-1.58h-1.44V192.1h1.68a113.76,113.76,0,0,0,2.86-25.61q0-42.17-26.27-68.57c-1.85-1.87-3.81-3.58-5.79-5.25H386.22l-.42-1.28h28.9c.24.21.48.42.73.62h17.64l-2.42-1.28H415l-.5-.36H394.28l-1.46-2.57h16.94c.81.58,1.63,1.15,2.42,1.76H425L421.72,87h-12c-15.47-10.25-34.28-15.47-56.56-15.47Z"/><polygon class="cls-1" points="1250.45 190.89 1253.66 190.89 1253.23 190.25 1250.02 190.25 1250.45 190.89"/><polygon class="cls-1" points="1311.02 141.33 1315.07 141.33 1314.53 140.52 1310.47 140.52 1311.02 141.33"/><path class="cls-1" d="M1307.5,136.82h.81v-2h8.93v2h5.25l1,.81h39.54l1.63,1.27h-43v.36h50.58a45.88,45.88,0,0,0-6.09-4.2q-13.53-7.83-30.77-7.83c-11.73,0-22.11,2.56-31.15,7.61h3.25Z"/><path class="cls-1" d="M1351.85,186.92l-25.73-6.11q-17.26-4-17.25-15.11,0-7.69,7.43-12.21t18.31-4.51q22.55,0,29.7,17.25l21.23-8.76a44.13,44.13,0,0,0-10.86-15.95h9.86l-1.62-1h-35.64v1.62h-2.44v-1.62h-1.62v1.62h-4.87v-1.62h-1.63v1.62h-4.87v-1.62h-1.62v1.62h-10.56V143h10.56v.81h-21.92l-1.62-.81h2.43v-.82h-2.43l-2.17-1.62h-8.6a41,41,0,0,0-3.36,3.19h.67v1.51h-1.92a32.75,32.75,0,0,0-2.4,3.28h4.32V150H1288a29.06,29.06,0,0,0-1.58,3.28h6.84v1.5h-7.41a31,31,0,0,0-1,3.28h8.4v1.51h-8.67c-.19,1.07-.35,2.16-.45,3.28h9.12v1.5H1284c0,.54-.09,1.07-.09,1.61s0,1.12.07,1.67h9.22v1.51h-9.14a31.58,31.58,0,0,0,.44,3.28h8.7v1.5h-8.39a28.93,28.93,0,0,0,1,3.28h7.42v1.51h-6.83a26.47,26.47,0,0,0,1.65,3.28h5.18v1.5H1289a28.2,28.2,0,0,0,2.63,3.28h1.56v1.51h-.06c.61.57,1.23,1.15,1.9,1.69A62.53,62.53,0,0,0,1318.68,202L1345,208.4q17.77,4.53,17.78,17.25,0,8.22-7.3,13.26T1336.72,244q-24.93,0-35.28-24.41l-13.26,5.5h5v1.5h-8.68l-4.86,2c.19.44.44.83.63,1.26h12.91v1.51h-12.16c.52,1.1,1,2.21,1.63,3.28h10.53v1.5h-9.79c.67,1.15,1.48,2.19,2.22,3.28h7.57v1.51h-6.55c.79,1.11,1.59,2.22,2.46,3.28h4.09v1.5h-2.74a65.12,65.12,0,0,0,10,9.4q14.19,10.62,35.94,10.62,22.55,0,36.87-11.67t14.33-29.18a35.16,35.16,0,0,0-8.76-23.35Q1370.15,191.16,1351.85,186.92Z"/><path class="cls-1" d="M1303.44,135.27c-.84.49-1.65,1-2.47,1.55h2.47Z"/><path class="cls-1" d="M1259.23,193.82v1.57H1256v-1.57h-.64v1.57h-7.07v-1.57h-4.15l-.83-.65H1212l-1.28-1h34v-.28h-54.85a3.31,3.31,0,0,1-3.22,2.71,3.36,3.36,0,1,1,0-6.71,3.31,3.31,0,0,1,3.28,3h32.49l4-1.28v1.28l5.14-1.28v1.28l5.14-1.28v1.28H1238v-1.28h8.35V189H1238v-.64h17.34l1.29.64h-1.93v.65h1.93l1.71,1.28h6c-1-18.44-6.65-33.41-17.18-44.82q-17.39-18.84-46.29-18.84-27.86,0-45.76,20.43A70.44,70.44,0,0,0,1141,172.31h25.32A40.94,40.94,0,0,1,1176.9,158a35,35,0,0,1,23.48-8.49q18.55,0,28,10.09t10.22,21.21h-75.34a53.54,53.54,0,0,1,2.34-7h-25a77.13,77.13,0,0,0-3.3,22.65q0,29.86,18.3,49.44h22.75l2.18,1.09h-3.27v1.09h3.27l2.91,2.18h14.53v1.09h8.72l5.45,2.78h-6.23l-1.4,1.09h-19.62v2.67h-5.45v-2.67h-1.09v2.67h-7.47q14.19,7.8,32.74,7.81,21.23,0,35.81-10.21t21-25.34l-21.75-9q-9.28,22.28-35.55,22.28a39.83,39.83,0,0,1-28.25-11.4q-12.08-11.4-13.14-31h102.67l.27-4.51c0-.91-.08-1.76-.1-2.65Zm-20.56.93h-17.35v-.65h17.35Zm3.85,0H1240v-.65h2.57Z"/><path class="cls-1" d="M1018.39,79.69,1030.32,88v4.56l-11.93-8.32v26.38l11.93,8.33v4.56l-11.93-8.32V141.6l11.93,8.32v4.56l-11.93-8.32v19.29h91.22l3.09,6.86h8.09V157.2h-78V94.87H1128l-11.66-11.05h-50.23a7.08,7.08,0,0,1-14.12-.86,7.09,7.09,0,0,1,14.16-.65h50.79l12.39,11.74V71.52H1018.39Z"/><polygon class="cls-1" points="1108.63 166.96 1018.39 166.96 1018.39 172.54 1030.32 180.87 1030.32 185.43 1018.39 177.11 1018.39 203.5 1030.32 211.82 1030.32 216.38 1018.39 208.06 1018.39 234.45 1030.32 242.77 1030.32 247.33 1018.39 239.01 1018.39 261.46 1042.8 261.46 1042.8 180.03 1120.79 180.03 1120.79 173.82 1111.73 173.82 1108.63 166.96"/><polygon class="cls-1" points="955.05 101.68 965.75 101.68 968.84 108.55 979.46 108.55 979.46 71.52 955.05 71.52 955.05 101.68"/><path class="cls-1" d="M964.77,103.19h-9.72V153h-95V71.52H852.3v.15H855v5.46H852.3v1.09H855v12H852.3v7.05l-1.09,1.4v53.1l-1.7,2.18V96.17H849v92.29a6.37,6.37,0,0,1,5.35,6.23,6.45,6.45,0,1,1-12.89,0,6.39,6.39,0,0,1,5.84-6.33V130.53h-2.18v-3.26h2.18v-2.18h-2.18v-6.55h2.18v-2.17h-2.18v-6.55h2.18v-2.18h-2.18V93.48h-1.09v14.16H843V78.22L844.06,76v3.27h1.09V76l2.18-2.91V71.52H835.68V223.41h7l.22.2,17.17,16.1V175.77h95v85.69h22.39L967.38,246l1.27-.82,10.58,16.3h.23v-6.39l-12.07-18.3,1.25-.83,10.82,16.4v-6.76L967.38,227l1.27-.82,10.81,16.66v-6.75l-12.07-18.3,1.25-.83,10.82,16.4v-6.76L967.38,208l1.27-.82,10.81,16.65v-6.75l-12.07-18.3,1.25-.83,10.82,16.4v-6.75L967.38,189l1.27-.82,10.81,16.66v-6.75l-12.07-18.3,1.25-.83,10.82,16.4V110.05H967.87ZM853.87,136h-1.09V106.55h1.09Zm0-31.6h-1.09V100h1.09Zm12.39,64.37h-5.42v-5.43h5.42Zm15.94,0h-5.43v-5.43h5.43Zm15.94,0h-5.43v-5.43h5.43Zm15.94,0h-5.43v-5.43h5.43Zm15.94,0h-5.43v-5.43H930Zm15.94,0h-5.43v-5.43H946Zm15.93,0h-5.42v-5.43h5.42Zm.19-16.05h-5.43v-5.43h5.43Zm10.51-5.43H978v5.43h-5.43Zm-.18,16h5.42v5.43h-5.42Z"/><path class="cls-1" d="M591.36,201.42h-29.6v-1.5H592l.22.2,15.48,14.52L558.75,85l-7.37-6.92H523.63L481.16,190.66h-9.61l.71,1.25h-3.71l.66,1.15h11.05l-.53,1.39h10.44l2.18,1.7H479.09l-.18.48h47.21L533.81,210h1.1L539.5,218l.66,1.13L545.4,210h34.54l18.31,51.46h27l-16.45-43.62Zm-34.53-14.24H544.77l16.4-28.39.38,1.05,4.26,11.77Zm-27.06,0h-6.29l-9.32-16.13,3.1-8.55.76-2.11.25-.69,15.87,27.48h-4.37ZM522,149.53l.92-2.55,1.76-4.86.67-1.85.46-1.27,4.91-13.55.73-2,8-21.94h1.06l6.08,16.8.68,1.86,2,5.56,1.58,4.36,1.1,3,.68,1.85h0l1,2.87,1.65,4.55,2,5.55h0l.67,1.86,2,5.55.57,1.58L543,187.18h-7.14L519,157.84l1-2.75Zm-13.64,37.65,5.17-14.28,8.25,14.28Zm31.84,28.89L536.65,210h7Zm26.33-42.6,5,13.71H558.57Z"/><path class="cls-1" d="M1059,78.09A4.95,4.95,0,1,0,1064,83,5,5,0,0,0,1059,78.09Z"/><polygon class="cls-1" points="61.33 325.64 109.38 325.64 141.92 268.66 117.89 226.42 61.33 325.64"/><polygon class="cls-1" points="2.25 0 148.18 257.21 170.46 218.28 46.56 0 2.25 0"/><polygon class="cls-1" points="87.11 172.24 0 325.64 48.31 325.64 111.39 214.98 87.11 172.24"/><path class="cls-1" d="M107.88,0H59.32L177,206.83l15.27-26.71a31.41,31.41,0,0,0,4.5-16,29.76,29.76,0,0,0-4.5-16Z"/></svg>