<?xml version="1.0" encoding="utf-8"?>
<!-- Generator: Adobe Illustrator 22.0.1, SVG Export Plug-In . SVG Version: 6.00 Build 0)  -->
<svg version="1.1" id="Layer_1" xmlns="http://www.w3.org/2000/svg" xmlns:xlink="http://www.w3.org/1999/xlink" x="0px" y="0px"
	 viewBox="0 0 1483.4 325.6" style="enable-background:new 0 0 1483.4 325.6;" xml:space="preserve">
<title>unnouncements</title>
<polygon points="552.2,76.8 557.5,81.8 553.7,71.5 526.1,71.5 524.2,76.6 552,76.6 "/>
<path d="M1157.8,248.1h5.2V247h-6.4C1157,247.4,1157.4,247.7,1157.8,248.1z"/>
<polygon points="1174.7,249.2 1169.2,249.2 1169.9,250.3 1175.4,250.3 "/>
<path d="M744.2,168.8l-22.7-13.1v5.4l-9.3-5.4v26.2l9.3-5.4v5.4L744.2,168.8z M723,158.2l18.2,10.5L723,179.3v-3.6l12-6.9l-12-6.9
	V158.2z M723,173.9v-10.3l8.9,5.1L723,173.9z M713.7,179.3v-21l7.8,4.5v12L713.7,179.3z"/>
<path d="M635.1,153c-0.3,2.2-0.4,4.5-0.6,6.8h11.1l0.2,0.5l23.7,72.5h26.2c-5.6-3.2-10.7-7-15.3-11.5c-14.2-14-21.3-32.3-21.3-54.9
	c0-4.5,0.4-9,1-13.5L635.1,153z"/>
<path d="M1474.9,239.2c-3.5,1.5-7.3,2.2-11.1,2.1c-11.7,0-17.5-7.1-17.5-21.2v-66.3h31.8v-6.5h-10.6v-1h10.6V145h-24.6l-1.9-1.5
	h26.5V143h-55.9l-2-1.5h52.1v-1.9h2.9v1.9h1.9v-1.9h1v-8.1h-31.8V96.7h-17.1l-2-1.5h19.1v-3.5h-24.4v39.8h-22.8v22.3h22.8v7.4
	l8.3,12.8l-1.3,0.8l-7-10.8v6.6l8.3,12.6l-1.2,0.8l-7-10.7v6.9l8.3,12.8l-1.3,0.8l-7-10.8v6.6l8.3,12.6l-1.2,0.8l-7-10.7v6.9
	l8.3,12.8l-1.3,0.8l-7-10.8v6.7l8.3,12.6l-1.2,0.8l-7-10.7v6.9l8.3,12.8l-1.3,0.8l-7-10.8v1c0,2.1,0.1,4.1,0.3,6.1l8,12.1l-1.2,0.8
	l-6.4-9.6c1.3,8.8,4.7,15.9,10.1,21.4c7.2,7.2,17.6,10.9,31.2,10.9c7.8,0,14.3-1.2,19.6-3.5L1474.9,239.2z"/>
<polygon points="835.7,227.6 835.7,264.1 860.1,264.1 860.1,244.4 842.1,227.6 "/>
<polygon points="846.2,87.3 847.3,86.6 847.3,81.1 846.2,81.8 "/>
<path d="M843,194.7c0,2.7,2.2,5,4.9,5c2.7,0,5-2.2,5-4.9c0-2.7-2.2-5-4.9-5c0,0,0,0,0,0C845.2,189.8,843,192,843,194.7z"/>
<polygon points="1017.2,300.1 1030.3,309.2 1030.3,304.7 1017.2,295.5 "/>
<polygon points="1017.2,269.2 1030.3,278.3 1030.3,273.7 1017.2,264.6 "/>
<rect x="988.3" y="163.3" width="5.4" height="5.4"/>
<rect x="988.5" y="147.3" width="5.4" height="5.4"/>
<rect x="1453.5" y="163.3" width="5.4" height="5.4"/>
<rect x="1469.5" y="163.3" width="5.4" height="5.4"/>
<polygon points="307,49.2 293.9,40.1 293.9,44.6 307,53.7 "/>
<polygon points="307,18.2 293.9,9.1 293.9,13.7 307,22.8 "/>
<rect x="298.9" y="251.1" width="0.5" height="10.3"/>
<rect x="295" y="248.4" width="0" height="13"/>
<polygon points="296.1,242.3 297.2,241.5 297.2,236.1 296.1,236.8 "/>
<path d="M302.2,250.4v1.8l-1.1,1.4v7.8h52c7.5,0,15-0.7,22.4-2l-9.6-9L302.2,250.4z M303.8,259.3h-1.1V255h1.1V259.3z"/>
<rect x="360.3" y="164.1" width="5.4" height="5.4"/>
<rect x="328.4" y="164.1" width="5.4" height="5.4"/>
<rect x="344.4" y="164.1" width="5.4" height="5.4"/>
<rect x="280.6" y="164.1" width="5.4" height="5.4"/>
<rect x="328.6" y="148.1" width="5.4" height="5.4"/>
<polygon points="478.3,198.3 457.1,254.5 451.9,254.5 452.3,255.2 456.8,255.2 456.5,256 445.7,256 446.2,256.8 456.2,256.8 
	454.5,261.5 481.5,261.5 500.1,210 531.8,210 525.1,198.3 "/>
<path d="M431.8,201.9h12c0.1-0.4,0.2-0.7,0.4-1.1h-12.4V201.9z"/>
<path d="M434.5,197h10.9c0-0.2,0.1-0.3,0.2-0.5h-11.1V197z"/>
<polygon points="420.2,199.7 425.6,199.7 424.9,198.6 419.5,198.6 "/>
<path d="M417.6,203H417c-2.9,6.1-6.9,11.6-11.7,16.3c-12.8,12.6-30.2,18.8-52.1,18.8h-33.7V94.9h13.8l-6.2-5.8h-32v13.7l12,8.3v4.6
	l-12-8.3v26.4l12,8.3v4.6l-12-8.3v96l0,0V231l2.2-2.9v-14.5h1.1v-8.7l2.8-5.4v6.2l1.1,1.4v19.6h2.7v5.4h-2.6v1.1h2.7v12h-2.7v3.8
	h64.2l0.2,0.2l10.6,9.9c18.2-3.6,33.5-11.6,45.9-24c9.1-9.1,16-20.1,20.3-32.1H417.6z M301.8,169.6h-5.4v-5.4h5.4V169.6z M302,153.6
	h-5.4v-5.4h5.4L302,153.6z M317.8,169.6h-5.4v-5.4h5.4V169.6z M318,153.6h-5.4v-5.4h5.5L318,153.6z"/>
<path d="M770.6,264.4l-0.4-0.7h-17.8c-1.5,0.3-3.1,0.5-4.7,0.7H770.6z"/>
<path d="M731.7,242.4c-12,0.2-23.8-2.6-34.5-7.9h-30l-0.2-0.5l-23.7-72.6h-10.1c-0.1,1.7-0.2,3.4-0.2,5.1c0,28.3,9.5,51.9,28.4,70.8
	c10.2,10.3,22.5,18.1,36.2,22.8h32.1l1.5,2.6h-24.8c13.5,3.3,27.6,3.9,41.3,1.7h-25.9l-0.4-0.7h31c7.6-1.5,15-3.9,22-7.1
	c12.6-5.7,23.7-14.2,32.6-24.8l-17-17C773.9,233.2,754.5,242.4,731.7,242.4z"/>
<path d="M705.9,267.8h25.9c1.6-0.2,3.1-0.4,4.7-0.7h-31L705.9,267.8z"/>
<path d="M697.9,107v-2h-10.8c-0.9,0.7-1.8,1.3-2.7,2.1L697.9,107z"/>
<path d="M652.2,103c0.9-0.7,1.8-1.4,2.7-2.1h-7.3l1.2,2.1H652.2z"/>
<rect x="706.1" y="105" width="1.7" height="2.1"/>
<rect x="697.9" y="103" width="8.2" height="2"/>
<path d="M635.1,121.3l-0.4-0.7h8.7c-4.8,9.7-7.9,20.2-9.3,31h25.1c1.3-8.8,4.2-17.3,8.6-25h11l0.8,1.3h8.7v-1.7h-20.2
	c1.1-1.9,2.4-3.8,3.7-5.7h4.2l-1.5-2.5h7.6l-1.4-2.4h-5.2c1.2-1.4,2.5-2.7,3.8-4c1.6-1.6,3.3-3.1,5.1-4.5h-3.4l-1.2-2.1h7.3
	c12.7-9.5,27.5-14.4,44.6-14.4c22.3,0,39.9,8,52.8,24.1l17-16.4c-10.7-12.4-23.4-21.1-38.1-26.1h10.2l-2.4-1.3h-11.9
	c-1.3-0.4-2.6-0.7-4-1h10.5l-3.3-2.6h-27.1c-1.2,0-2.5-0.1-3.7-0.1c-28,0-51.4,9.5-70.3,28.4c-3.6,3.6-7,7.5-10,11.7h-43.7v0.3h35.2
	l0.8,1.3h6.6c-1.5,2.2-2.9,4.4-4.2,6.6h-1.3v-1.3h-3.3v1.3h-6.6v-1.3h-3.7l2.1,3.7h-7.6l1.5,2.6h2v0.7L635.1,121.3z"/>
<path d="M295,71.5v0.3l12,8.3v4.6l-12-8.3v10.9h32.7l0.2,0.2l7.8,7.3h17.4c21.9,0,39.3,6.3,52.1,19s19.2,30.2,19.2,52.7
	c0.1,8.3-1,16.5-3.1,24.5h7.1v2.7h7l1.4,1.1h9c0.1-0.5,0.2-1.1,0.4-1.6h-1.4v-1.1h1.7c1.9-8.4,2.9-17,2.9-25.6
	c0-28.1-8.8-51-26.3-68.6c-1.9-1.9-3.8-3.6-5.8-5.2h-31.1l-0.4-1.3h28.9c0.2,0.2,0.5,0.4,0.7,0.6h17.6l-2.4-1.3H415l-0.5-0.4h-20.2
	l-1.5-2.6h16.9c0.8,0.6,1.6,1.2,2.4,1.8H425l-3.3-2.6h-12c-15.5-10.2-34.3-15.5-56.6-15.5L295,71.5z"/>
<polygon points="1250.4,190.9 1253.7,190.9 1253.2,190.2 1250,190.2 "/>
<polygon points="1311,141.3 1315.1,141.3 1314.5,140.5 1310.5,140.5 "/>
<path d="M1307.5,136.8h0.8v-2h8.9v2h5.2l1,0.8h39.5l1.6,1.3h-43v0.4h50.6c-1.9-1.6-4-3-6.1-4.2c-9-5.2-19.3-7.8-30.8-7.8
	c-11.7,0-22.1,2.6-31.2,7.6h3.2L1307.5,136.8z"/>
<path d="M1351.8,186.9l-25.7-6.1c-11.5-2.7-17.3-7.7-17.2-15.1c0-5.1,2.5-9.2,7.4-12.2s11.1-4.5,18.3-4.5c15,0,24.9,5.8,29.7,17.2
	l21.2-8.8c-2.4-6.1-6.1-11.5-10.9-15.9h9.9l-1.6-1h-35.6v1.6h-2.4v-1.6h-1.6v1.6h-4.9v-1.6h-1.6v1.6h-4.9v-1.6h-1.6v1.6h-10.6v0.9
	h10.6v0.8h-21.9l-1.6-0.8h2.4v-0.8h-2.4l-2.2-1.6h-8.6c-1.2,1-2.3,2.1-3.4,3.2h0.7v1.5h-1.9c-0.9,1-1.7,2.1-2.4,3.3h4.3v1.5h-5.2
	c-0.6,1.1-1.1,2.2-1.6,3.3h6.8v1.5h-7.4c-0.4,1.1-0.7,2.2-1,3.3h8.4v1.5h-8.7c-0.2,1.1-0.3,2.2-0.4,3.3h9.1v1.5h-9.2
	c0,0.5-0.1,1.1-0.1,1.6s0,1.1,0.1,1.7h9.2v1.5h-9.1c0.1,1.1,0.2,2.2,0.4,3.3h8.7v1.5h-8.4c0.3,1.1,0.6,2.2,1,3.3h7.4v1.5h-6.8
	c0.5,1.1,1,2.2,1.7,3.3h5.2v1.5h-4.2c0.8,1.2,1.7,2.3,2.6,3.3h1.6v1.5h-0.1c0.6,0.6,1.2,1.1,1.9,1.7c6.9,5.7,15,9.8,23.7,12
	l26.3,6.4c11.8,3,17.8,8.8,17.8,17.2c0,5.5-2.4,9.9-7.3,13.3c-4.9,3.4-11.1,5.1-18.8,5.1c-16.6,0-28.4-8.1-35.3-24.4l-13.3,5.5h5
	v1.5h-8.7l-4.9,2c0.2,0.4,0.4,0.8,0.6,1.3h12.9v1.5H1281c0.5,1.1,1,2.2,1.6,3.3h10.5v1.5h-9.8c0.7,1.1,1.5,2.2,2.2,3.3h7.6v1.5h-6.6
	c0.8,1.1,1.6,2.2,2.5,3.3h4.1v1.5h-2.7c3,3.5,6.3,6.6,10,9.4c9.5,7.1,21.4,10.6,35.9,10.6c15,0,27.3-3.9,36.9-11.7
	c9.5-7.8,14.3-17.5,14.3-29.2c0-8.6-3.1-16.9-8.8-23.4C1373,194.6,1364,189.7,1351.8,186.9z"/>
<path d="M1303.4,135.3c-0.8,0.5-1.7,1-2.5,1.6h2.5V135.3z"/>
<path d="M1259.2,193.8v1.6h-3.2v-1.6h-0.6v1.6h-7.1v-1.6h-4.2l-0.8-0.6H1212l-1.3-1h34v-0.3h-54.8c-0.3,1.6-1.6,2.7-3.2,2.7
	c-1.9,0.1-3.4-1.3-3.5-3.2c-0.1-1.9,1.3-3.4,3.2-3.5c0.1,0,0.2,0,0.4,0c1.7,0,3.1,1.3,3.3,3h32.5l4-1.3v1.3l5.1-1.3v1.3l5.1-1.3v1.3
	h1.3v-1.3h8.3V189h-8.3v-0.6h17.3l1.3,0.6h-1.9v0.6h1.9l1.7,1.3h6c-1-18.4-6.7-33.4-17.2-44.8c-11.6-12.6-27-18.8-46.3-18.8
	c-18.6,0-33.8,6.8-45.8,20.4c-6.3,7.2-11.1,15.5-14.1,24.6h25.3c2.4-5.5,6-10.4,10.6-14.3c6.5-5.6,14.9-8.6,23.5-8.5
	c12.4,0,21.7,3.4,28,10.1c6.3,6.7,9.7,13.8,10.2,21.2h-75.3c0.6-2.4,1.4-4.7,2.3-7h-25c-2.2,7.3-3.3,15-3.3,22.6
	c0,19.9,6.1,36.4,18.3,49.4h22.8l2.2,1.1h-3.3v1.1h3.3l2.9,2.2h14.5v1.1h8.7l5.4,2.8h-6.2l-1.4,1.1h-19.6v2.7h-5.4v-2.7h-1.1v2.7
	h-7.5c9.5,5.2,20.4,7.8,32.7,7.8c14.2,0,26.1-3.4,35.8-10.2c9.7-6.8,16.7-15.3,21-25.3l-21.8-9c-6.2,14.9-18,22.3-35.6,22.3
	c-10.6,0.1-20.7-4-28.2-11.4c-8.1-7.6-12.4-17.9-13.1-31h102.7l0.3-4.5c0-0.9-0.1-1.8-0.1-2.6L1259.2,193.8z M1238.7,194.8h-17.3
	v-0.6h17.3V194.8z M1242.5,194.8h-2.5v-0.6h2.6L1242.5,194.8z"/>
<path d="M1018.4,79.7l11.9,8.3v4.6l-11.9-8.3v26.4l11.9,8.3v4.6l-11.9-8.3v26.4l11.9,8.3v4.6l-11.9-8.3v19.3h91.2l3.1,6.9h8.1v-15.1
	h-78V94.9h85.2l-11.7-11.1h-50.2c-0.4,3.9-3.9,6.7-7.8,6.3c-3.6-0.4-6.4-3.5-6.3-7.2c-0.1-3.9,3-7.1,7-7.2c3.8-0.1,6.9,2.8,7.2,6.6
	h50.8l12.4,11.7V71.5h-110.9V79.7z"/>
<polygon points="1108.6,167 1018.4,167 1018.4,172.5 1030.3,180.9 1030.3,185.4 1018.4,177.1 1018.4,203.5 1030.3,211.8 
	1030.3,216.4 1018.4,208.1 1018.4,234.4 1030.3,242.8 1030.3,247.3 1018.4,239 1018.4,261.5 1042.8,261.5 1042.8,180 1120.8,180 
	1120.8,173.8 1111.7,173.8 "/>
<polygon points="955,101.7 965.8,101.7 968.8,108.6 979.5,108.6 979.5,71.5 955,71.5 "/>
<path d="M964.8,103.2h-9.7V153h-95V71.5h-7.8v0.2h2.7v5.5h-2.7v1.1h2.7v12h-2.7v7.1l-1.1,1.4v53.1l-1.7,2.2V96.2H849v92.3
	c3.1,0.5,5.3,3.1,5.3,6.2c0.1,3.6-2.6,6.6-6.2,6.7c-3.6,0.1-6.6-2.6-6.7-6.2c0-0.2,0-0.3,0-0.5c0-3.3,2.6-6,5.8-6.3v-57.8h-2.2v-3.3
	h2.2v-2.2h-2.2v-6.6h2.2v-2.2h-2.2v-6.6h2.2v-2.2h-2.2V93.5H844v14.2h-1V78.2l1.1-2.2v3.3h1.1V76l2.2-2.9v-1.6h-11.7v151.9h7
	l0.2,0.2l17.2,16.1v-63.9h95v85.7h22.4L967.4,246l1.3-0.8l10.6,16.3h0.2v-6.4l-12.1-18.3l1.2-0.8l10.8,16.4v-6.8L967.4,227l1.3-0.8
	l10.8,16.7v-6.8l-12.1-18.3l1.2-0.8l10.8,16.4v-6.8L967.4,208l1.3-0.8l10.8,16.6v-6.8l-12.1-18.3l1.2-0.8l10.8,16.4v-6.8L967.4,189
	l1.3-0.8l10.8,16.7v-6.8l-12.1-18.3l1.2-0.8l10.8,16.4v-85.3h-11.6L964.8,103.2z M853.9,136h-1.1v-29.4h1.1V136z M853.9,104.4h-1.1
	V100h1.1V104.4z M866.3,168.8h-5.4v-5.4h5.4V168.8z M882.2,168.8h-5.4v-5.4h5.4V168.8z M898.1,168.8h-5.4v-5.4h5.4V168.8z
	 M914.1,168.8h-5.4v-5.4h5.4V168.8z M930,168.8h-5.4v-5.4h5.4L930,168.8z M946,168.8h-5.4v-5.4h5.5L946,168.8z M961.9,168.8h-5.4
	v-5.4h5.4V168.8z M962.1,152.7h-5.4v-5.4h5.4V152.7z M972.6,147.3h5.4v5.4h-5.4L972.6,147.3z M972.4,163.3h5.4v5.4h-5.4V163.3z"/>
<path d="M591.4,201.4h-29.6v-1.5H592l0.2,0.2l15.5,14.5L558.8,85l-7.4-6.9h-27.8l-42.5,112.6h-9.6l0.7,1.2h-3.7l0.7,1.1h11l-0.5,1.4
	h10.4l2.2,1.7h-13.3l-0.2,0.5h47.2l7.7,13.4h1.1l4.6,8l0.7,1.1l5.2-9.1h34.5l18.3,51.5h27l-16.5-43.6L591.4,201.4z M556.8,187.2
	h-12.1l16.4-28.4l0.4,1.1l4.3,11.8L556.8,187.2z M529.8,187.2h-6.3l-9.3-16.1l3.1-8.6l0.8-2.1l0.2-0.7l15.9,27.5L529.8,187.2
	L529.8,187.2z M522,149.5l0.9-2.6l1.8-4.9l0.7-1.9l0.5-1.3l4.9-13.6l0.7-2l8-21.9h1.1l6.1,16.8l0.7,1.9l2,5.6l1.6,4.4l1.1,3l0.7,1.9
	l0,0l1,2.9l1.7,4.6l2,5.6l0,0l0.7,1.9l2,5.6l0.6,1.6L543,187.2h-7.1L519,157.8l1-2.8L522,149.5z M508.4,187.2l5.2-14.3l8.2,14.3
	H508.4z M540.2,216.1l-3.5-6.1h7L540.2,216.1z M566.5,173.5l5,13.7h-13L566.5,173.5z"/>
<path d="M1059,78.1c-2.7,0-4.9,2.3-4.9,5c0,2.7,2.3,4.9,5,4.9c2.7,0,4.9-2.3,4.9-5C1064,80.3,1061.7,78.1,1059,78.1z"/>
<polygon points="61.3,325.6 109.4,325.6 141.9,268.7 117.9,226.4 "/>
<polygon points="2.2,0 148.2,257.2 170.5,218.3 46.6,0 "/>
<polygon points="87.1,172.2 0,325.6 48.3,325.6 111.4,215 "/>
<path d="M107.9,0H59.3L177,206.8l15.3-26.7c2.9-4.8,4.5-10.4,4.5-16c0-5.7-1.5-11.2-4.5-16L107.9,0z"/>
</svg>
