<?xml version="1.0" encoding="utf-8"?>
<!-- Generator: Adobe Illustrator 21.1.0, SVG Export Plug-In . SVG Version: 6.00 Build 0)  -->
<svg version="1.1" id="Layer_1" xmlns="http://www.w3.org/2000/svg" xmlns:xlink="http://www.w3.org/1999/xlink" x="0px" y="0px"
	 viewBox="0 0 937.4 232.7" style="enable-background:new 0 0 937.4 232.7;" xml:space="preserve">
<style type="text/css">
	.st0{fill:#D1263D;}
	.st1{enable-background:new    ;}
	.st2{fill:#FFCE03;}
</style>
<title>MAKING A DIFFERENCE</title>
<rect x="900.9" y="69.3" class="st0" width="4.2" height="4.2"/>
<rect x="875.9" y="69.3" class="st0" width="4.2" height="4.2"/>
<rect x="826" y="69.3" class="st0" width="4.2" height="4.2"/>
<rect x="776" y="69.3" class="st0" width="4.2" height="4.2"/>
<rect x="751.1" y="69.3" class="st0" width="4.2" height="4.2"/>
<rect x="726.1" y="69.3" class="st0" width="4.2" height="4.2"/>
<rect x="701.1" y="69.3" class="st0" width="4.2" height="4.2"/>
<rect x="676.2" y="69.3" class="st0" width="4.2" height="4.2"/>
<rect x="651.2" y="69.3" class="st0" width="4.2" height="4.2"/>
<rect x="925.8" y="69.3" class="st0" width="4.2" height="4.2"/>
<rect x="801" y="69.3" class="st0" width="4.2" height="4.2"/>
<rect x="763.6" y="69.3" class="st0" width="4.2" height="4.2"/>
<rect x="738.6" y="69.3" class="st0" width="4.2" height="4.2"/>
<rect x="713.6" y="69.3" class="st0" width="4.2" height="4.2"/>
<rect x="688.7" y="69.3" class="st0" width="4.2" height="4.2"/>
<rect x="663.7" y="69.3" class="st0" width="4.2" height="4.2"/>
<rect x="850.9" y="69.3" class="st0" width="4.2" height="4.2"/>
<rect x="888.4" y="69.3" class="st0" width="4.2" height="4.2"/>
<rect x="863.4" y="69.3" class="st0" width="4.2" height="4.2"/>
<rect x="813.5" y="69.3" class="st0" width="4.2" height="4.2"/>
<rect x="913.3" y="69.3" class="st0" width="4.2" height="4.2"/>
<rect x="788.5" y="69.3" class="st0" width="4.2" height="4.2"/>
<rect x="838.5" y="69.3" class="st0" width="4.2" height="4.2"/>
<rect x="539.3" y="54.3" class="st0" width="13.2" height="3.3"/>
<rect x="916.9" y="54.3" class="st0" width="13.2" height="3.3"/>
<rect x="858.8" y="54.3" class="st0" width="13.2" height="3.3"/>
<rect x="829.8" y="54.3" class="st0" width="13.2" height="3.3"/>
<rect x="713.6" y="54.3" class="st0" width="13.2" height="3.3"/>
<rect x="742.6" y="54.3" class="st0" width="13.2" height="3.3"/>
<rect x="626.4" y="54.3" class="st0" width="13.2" height="3.3"/>
<rect x="597.4" y="54.3" class="st0" width="13.2" height="3.3"/>
<rect x="568.3" y="54.3" class="st0" width="13.2" height="3.3"/>
<rect x="887.8" y="54.3" class="st0" width="13.2" height="3.3"/>
<rect x="800.7" y="54.3" class="st0" width="13.2" height="3.3"/>
<rect x="771.7" y="54.3" class="st0" width="13.2" height="3.3"/>
<rect x="655.5" y="54.3" class="st0" width="13.2" height="3.3"/>
<rect x="684.5" y="54.3" class="st0" width="13.2" height="3.3"/>
<polygon class="st0" points="922.1,47 918.1,47 926.1,35.5 930.1,35.5 "/>
<polygon class="st0" points="895,47 891,47 899,35.5 903,35.5 "/>
<polygon class="st0" points="868,47 864,47 872,35.5 876,35.5 "/>
<polygon class="st0" points="840.9,47 836.9,47 844.9,35.5 848.9,35.5 "/>
<polygon class="st0" points="813.8,47 809.9,47 817.8,35.5 821.8,35.5 "/>
<polygon class="st0" points="786.8,47 782.8,47 790.8,35.5 794.8,35.5 "/>
<polygon class="st0" points="759.7,47 755.7,47 763.7,35.5 767.7,35.5 "/>
<polygon class="st0" points="732.7,47 728.7,47 736.6,35.5 740.6,35.5 "/>
<polygon class="st0" points="705.6,47 701.6,47 709.6,35.5 713.6,35.5 "/>
<polygon class="st0" points="678.5,47 674.5,47 682.5,35.5 686.5,35.5 "/>
<polygon class="st0" points="651.5,47 647.5,47 655.5,35.5 659.5,35.5 "/>
<polygon class="st0" points="624.4,47 620.4,47 628.4,35.5 632.4,35.5 "/>
<polygon class="st0" points="597.3,47 593.3,47 601.3,35.5 605.3,35.5 "/>
<g class="st1">
	<path class="st2" d="M20.4,14.5l23.2,58l23.2-58H79v71.1h-9.4V57.9L70.5,28L47.2,85.6H40L16.7,28.1l0.9,29.7v27.7H8.3V14.5H20.4z"
		/>
	<path class="st2" d="M159.6,67h-29.8l-6.7,18.6h-9.7l27.2-71.1h8.2L176,85.6h-9.6L159.6,67z M132.6,59.3h24.2L144.7,26L132.6,59.3z
		"/>
	<path class="st2" d="M228.4,52.5l-8.7,9v24h-9.4V14.5h9.4v35.2l31.6-35.2h11.3l-28,31.4l30.2,39.7h-11.2L228.4,52.5z"/>
	<path class="st2" d="M307.9,85.6h-9.4V14.5h9.4V85.6z"/>
	<path class="st2" d="M404.4,85.6H395l-35.8-54.8v54.8h-9.4V14.5h9.4l35.9,55v-55h9.3V85.6z"/>
	<path class="st2" d="M498.3,76.2c-2.4,3.5-5.8,6-10.1,7.7c-4.3,1.7-9.3,2.6-15.1,2.6c-5.8,0-10.9-1.4-15.4-4.1
		c-4.5-2.7-8-6.6-10.4-11.6c-2.5-5-3.7-10.8-3.8-17.4v-6.2c0-10.7,2.5-19,7.5-24.9c5-5.9,12-8.8,21.1-8.8c7.4,0,13.4,1.9,17.9,5.7
		c4.5,3.8,7.3,9.2,8.3,16.1H489c-1.8-9.4-7.4-14.2-16.8-14.2c-6.3,0-11,2.2-14.3,6.6c-3.2,4.4-4.9,10.8-4.9,19.2v5.8
		c0,8,1.8,14.3,5.5,19c3.6,4.7,8.6,7.1,14.8,7.1c3.5,0,6.6-0.4,9.2-1.2c2.6-0.8,4.8-2.1,6.5-3.9V57.8h-16.5v-7.7h25.8V76.2z"/>
</g>
<g class="st1">
	<path class="st2" d="M47.5,187H17.7L11,205.6H1.4l27.2-71.1h8.2l27.2,71.1h-9.6L47.5,187z M20.6,179.3h24.2l-12.1-33.3L20.6,179.3z
		"/>
</g>
<g class="st1">
	<path class="st2" d="M145.3,205.6v-71.1h22.9c6.3,0,11.9,1.4,16.9,4.3c5,2.8,8.9,6.9,11.7,12.1s4.2,11,4.3,17.5v3.3
		c0,6.5-1.4,12.3-4.1,17.5s-6.6,9.2-11.6,12.1c-5,2.9-10.6,4.4-16.7,4.4H145.3z M162.5,147.7v44.7h6c4.9,0,8.7-1.7,11.3-5.2
		c2.6-3.5,4-8.7,4-15.6v-3.1c0-6.9-1.3-12-4-15.5c-2.6-3.5-6.5-5.2-11.5-5.2H162.5z"/>
	<path class="st2" d="M253.2,205.6h-17.1v-71.1h17.1V205.6z"/>
	<path class="st2" d="M334.8,177.3h-27.6v28.3H290v-71.1h47.6v13.2h-30.4v16.4h27.6V177.3z"/>
	<path class="st2" d="M414.4,177.3h-27.6v28.3h-17.1v-71.1h47.6v13.2h-30.4v16.4h27.6V177.3z"/>
	<path class="st2" d="M493.3,175.4h-27v17h31.8v13.2h-49v-71.1h49.1v13.2h-31.9v15h27V175.4z"/>
	<path class="st2" d="M556.5,180.4h-9.3v25.2h-17.1v-71.1h28c8.4,0,15,1.9,19.8,5.6c4.8,3.7,7.1,9,7.1,15.9c0,4.9-1,9-3,12.3
		c-2,3.3-5.1,5.9-9.4,7.9l14.8,28.7v0.7h-18.4L556.5,180.4z M547.2,167.3h10.8c3.3,0,5.7-0.9,7.3-2.6c1.6-1.7,2.5-4.1,2.5-7.2
		c0-3.1-0.8-5.5-2.5-7.2c-1.7-1.7-4.1-2.6-7.3-2.6h-10.8V167.3z"/>
	<path class="st2" d="M664.3,175.4h-27v17h31.8v13.2h-49v-71.1h49.1v13.2h-31.9v15h27V175.4z"/>
	<path class="st2" d="M760.5,205.6h-17l-25.2-44.2v44.2h-17.1v-71.1h17.1l25.2,44.2v-44.2h17.1V205.6z"/>
	<path class="st2" d="M853.8,181.5c-0.2,4.9-1.6,9.3-4,13.1c-2.4,3.8-5.9,6.7-10.3,8.8c-4.4,2.1-9.5,3.1-15.1,3.1
		c-9.3,0-16.7-3-22.1-9.1c-5.4-6.1-8.1-14.7-8.1-25.8v-3.5c0-7,1.2-13.1,3.6-18.3s5.9-9.3,10.5-12.1c4.6-2.8,9.8-4.3,15.8-4.3
		c8.6,0,15.6,2.3,20.8,6.8s8.2,10.8,8.9,18.8h-17.1c-0.1-4.3-1.2-7.4-3.3-9.3c-2.1-1.9-5.2-2.8-9.4-2.8c-4.3,0-7.4,1.6-9.4,4.8
		c-2,3.2-3,8.3-3.1,15.3v5c0,7.6,1,13,2.9,16.3c1.9,3.3,5.2,4.9,9.8,4.9c3.9,0,7-0.9,9-2.8c2.1-1.9,3.2-4.8,3.3-8.8H853.8z"/>
	<path class="st2" d="M930.9,175.4h-27v17h31.8v13.2h-49v-71.1h49.1v13.2h-31.9v15h27V175.4z"/>
</g>
</svg>
