<svg id="Layer_1" data-name="Layer 1" xmlns="http://www.w3.org/2000/svg" viewBox="0 0 937.43 232.7"><defs><style>.cls-1{fill:#d1263d;}.cls-2{font-size:100.02px;fill:#ffce03;font-family:Roboto-Regular, Roboto;}.cls-3{font-family:Roboto-Black, Roboto;}</style></defs><title>unnouncements</title><rect class="cls-1" x="900.86" y="69.3" width="4.25" height="4.25"/><rect class="cls-1" x="875.9" y="69.3" width="4.25" height="4.25"/><rect class="cls-1" x="825.97" y="69.3" width="4.25" height="4.25"/><rect class="cls-1" x="776.04" y="69.3" width="4.25" height="4.25"/><rect class="cls-1" x="751.07" y="69.3" width="4.25" height="4.25"/><rect class="cls-1" x="726.11" y="69.3" width="4.25" height="4.25"/><rect class="cls-1" x="701.14" y="69.3" width="4.25" height="4.25"/><rect class="cls-1" x="676.18" y="69.3" width="4.25" height="4.25"/><rect class="cls-1" x="651.22" y="69.3" width="4.25" height="4.25"/><rect class="cls-1" x="925.82" y="69.3" width="4.25" height="4.25"/><rect class="cls-1" x="801" y="69.3" width="4.25" height="4.25"/><rect class="cls-1" x="763.56" y="69.3" width="4.25" height="4.25"/><rect class="cls-1" x="738.59" y="69.3" width="4.25" height="4.25"/><rect class="cls-1" x="713.63" y="69.3" width="4.25" height="4.25"/><rect class="cls-1" x="688.66" y="69.3" width="4.25" height="4.25"/><rect class="cls-1" x="663.7" y="69.3" width="4.25" height="4.25"/><rect class="cls-1" x="850.93" y="69.3" width="4.25" height="4.25"/><rect class="cls-1" x="888.38" y="69.3" width="4.25" height="4.25"/><rect class="cls-1" x="863.41" y="69.3" width="4.25" height="4.25"/><rect class="cls-1" x="813.48" y="69.3" width="4.25" height="4.25"/><rect class="cls-1" x="913.34" y="69.3" width="4.25" height="4.25"/><rect class="cls-1" x="788.52" y="69.3" width="4.25" height="4.25"/><rect class="cls-1" x="838.45" y="69.3" width="4.25" height="4.25"/><rect class="cls-1" x="539.26" y="54.31" width="13.18" height="3.27"/><rect class="cls-1" x="916.9" y="54.31" width="13.18" height="3.27"/><rect class="cls-1" x="858.8" y="54.31" width="13.18" height="3.27"/><rect class="cls-1" x="829.75" y="54.31" width="13.18" height="3.27"/><rect class="cls-1" x="713.56" y="54.31" width="13.18" height="3.27"/><rect class="cls-1" x="742.6" y="54.31" width="13.18" height="3.27"/><rect class="cls-1" x="626.41" y="54.31" width="13.18" height="3.27"/><rect class="cls-1" x="597.36" y="54.31" width="13.18" height="3.27"/><rect class="cls-1" x="568.31" y="54.31" width="13.18" height="3.27"/><rect class="cls-1" x="887.85" y="54.31" width="13.18" height="3.27"/><rect class="cls-1" x="800.7" y="54.31" width="13.18" height="3.27"/><rect class="cls-1" x="771.65" y="54.31" width="13.18" height="3.27"/><rect class="cls-1" x="655.46" y="54.31" width="13.18" height="3.27"/><rect class="cls-1" x="684.51" y="54.31" width="13.18" height="3.27"/><polygon class="cls-1" points="922.1 46.95 918.11 46.95 926.09 35.51 930.08 35.51 922.1 46.95"/><polygon class="cls-1" points="895.03 46.95 891.05 46.95 899.02 35.51 903.01 35.51 895.03 46.95"/><polygon class="cls-1" points="867.97 46.95 863.98 46.95 871.96 35.51 875.95 35.51 867.97 46.95"/><polygon class="cls-1" points="840.91 46.95 836.92 46.95 844.9 35.51 848.89 35.51 840.91 46.95"/><polygon class="cls-1" points="813.85 46.95 809.86 46.95 817.83 35.51 821.82 35.51 813.85 46.95"/><polygon class="cls-1" points="786.78 46.95 782.79 46.95 790.77 35.51 794.76 35.51 786.78 46.95"/><polygon class="cls-1" points="759.72 46.95 755.73 46.95 763.71 35.51 767.7 35.51 759.72 46.95"/><polygon class="cls-1" points="732.66 46.95 728.67 46.95 736.64 35.51 740.63 35.51 732.66 46.95"/><polygon class="cls-1" points="705.59 46.95 701.61 46.95 709.58 35.51 713.57 35.51 705.59 46.95"/><polygon class="cls-1" points="678.53 46.95 674.54 46.95 682.52 35.51 686.51 35.51 678.53 46.95"/><polygon class="cls-1" points="651.47 46.95 647.48 46.95 655.46 35.51 659.45 35.51 651.47 46.95"/><polygon class="cls-1" points="624.4 46.95 620.42 46.95 628.39 35.51 632.38 35.51 624.4 46.95"/><polygon class="cls-1" points="597.34 46.95 593.35 46.95 601.33 35.51 605.32 35.51 597.34 46.95"/><text class="cls-2" transform="translate(0 85.57)"><tspan xml:space="preserve">M A K I N G   </tspan><tspan x="0" y="120.03">A</tspan><tspan class="cls-3" x="65.25" y="120.03" xml:space="preserve">   D I F F E R E N C E</tspan></text></svg>